<svg width="100px" height="100px" viewBox="0 0 439 439" version="1.1" xmlns="http://www.w3.org/2000/svg" xmlns:xlink="http://www.w3.org/1999/xlink">
            <!-- Generator: Sketch 53.2 (72643) - https://sketchapp.com -->
            <title>Artboard</title>
            <desc>Created with Sketch.</desc>
            <g id="Artboard" stroke="none" stroke-width="1" fill="none" fill-rule="evenodd">
              <g id="invoice" transform="translate(39.000000, 0.000000)" fill-rule="nonzero">
                <path d="M237.69677,6.43066406 L18.8599322,6.43066406 C11.9972081,6.43066406 6.43066406,11.9972081 6.43066406,18.8599322 L6.43066406,420.140068 C6.43066406,427.002792 11.9972081,432.569336 18.8599322,432.569336 L316.505898,432.569336 C323.371971,432.569336 328.935165,427.002792 328.935165,420.140068 L328.935165,97.6690595 L237.69677,6.43066406 Z" id="Path" fill="#FFFFFF"></path>
                <path d="M259.490692,28.2212368 L259.490692,108.239464 C259.490692,114.435677 264.511299,119.459633 270.710861,119.459633 L281.776962,119.459633 L281.776962,420.140068 C281.776962,427.002792 276.210419,432.569336 269.347695,432.569336 L316.505898,432.569336 C323.368622,432.569336 328.935165,427.002792 328.935165,420.140068 L328.935165,97.6690595 L259.490692,28.2212368 Z" id="Path" fill="#E2EBF9"></path>
                <path d="M237.696769,86.445541 L237.696769,6.43066406 L328.935165,97.6690595 L248.920288,97.6690595 C242.724076,97.6690595 237.696769,92.6451032 237.696769,86.445541 L237.696769,86.445541 Z" id="Path" fill="#C1C8D2"></path>
                <g id="Group" transform="translate(40.298828, 281.234375)" fill="#AAB2B9">
                  <path d="M203.306114,13.2331011 L7.15076468,13.2331011 C3.60050223,13.2331011 0.720100617,10.3526995 0.720100617,6.80243704 C0.720100617,3.24882464 3.60050223,0.37177298 7.15076468,0.37177298 L203.306114,0.37177298 C206.856376,0.37177298 209.736778,3.24882464 209.736778,6.80243704 C209.736778,10.3526995 206.856376,13.2331011 203.306114,13.2331011 Z" id="Path"></path>
                  <path d="M169.866661,53.1266636 L7.15076468,53.1266636 C3.60050223,53.1266636 0.720100617,50.2496111 0.720100617,46.6959996 C0.720100617,43.1457363 3.60050223,40.2653355 7.15076468,40.2653355 L169.866661,40.2653355 C173.416923,40.2653355 176.297325,43.1457363 176.297325,46.6959996 C176.297325,50.2496111 173.416923,53.1266636 169.866661,53.1266636 Z" id="Path"></path>
                  <path d="M136.306633,93.0235753 L7.15076468,93.0235753 C3.60050223,93.0235753 0.720100617,90.1431728 0.720100617,86.5929112 C0.720100617,83.0426479 3.60050223,80.1622471 7.15076468,80.1622471 L136.306633,80.1622471 C139.860245,80.1622471 142.737297,83.0426479 142.737297,86.5929112 C142.737297,90.1431728 139.860245,93.0235753 136.306633,93.0235753 Z" id="Path"></path>
                </g>
                <path d="M312.426445,432.569336 C270.114685,432.569336 235.814461,398.269112 235.814461,355.960701 C235.814461,313.648941 270.114685,279.352066 312.426445,279.352066 C354.734855,279.352066 389.03508,313.648941 389.03508,355.960701 C389.03508,398.269112 354.734855,432.569336 312.426445,432.569336 Z" id="Path" fill="#D8E0EA"></path>
                <path d="M312.426445,279.352066 C304.197205,279.352066 296.27275,280.654946 288.847343,283.053047 C319.617401,293.00048 341.876876,321.878182 341.876876,355.960701 C341.876876,390.043221 319.617401,418.920921 288.847343,428.865006 C296.27275,431.266457 304.197205,432.569336 312.426445,432.569336 C354.734855,432.569336 389.03508,398.269112 389.03508,355.960701 C389.03508,313.648941 354.734855,279.352066 312.426445,279.352066 L312.426445,279.352066 Z" id="Path" fill="#A0A0A0"></path>
                <path d="M304.810127,390.130302 C303.262749,390.130302 301.758911,389.570968 300.583305,388.542732 L267.579262,359.762162 C264.903168,357.427696 264.628524,353.368339 266.95964,350.688896 C269.294106,348.012802 273.356812,347.73481 276.032906,350.069275 L304.086678,374.535942 L347.992706,322.012154 C350.270233,319.28582 354.326241,318.924095 357.049225,321.201622 C359.775558,323.479149 360.137284,327.535156 357.859757,330.25814 L309.743652,387.822632 C308.635032,389.148956 307.040764,389.972885 305.315873,390.110207 C305.148407,390.120255 304.977592,390.130302 304.810127,390.130302 L304.810127,390.130302 Z" id="darkColor" fill="#3166C9"></path>
                <path d="M54.2788243,230.301506 L281.087006,230.301506 C284.858322,230.301506 287.916237,227.24694 287.916237,223.475624 L287.916237,148.293793 C287.916237,144.522477 284.858322,141.467911 281.087006,141.467911 L54.2788243,141.467911 C50.5075073,141.467911 47.4529419,144.522477 47.4529419,148.293793 L47.4529419,223.475624 C47.4495928,227.24694 50.5075073,230.301506 54.2788243,230.301506 Z" id="mainColor" fill="#3166C9"></path>
                <path d="M281.087006,141.464561 L240.758034,141.464561 L240.758034,230.301506 L281.087006,230.301506 C284.858322,230.301506 287.916237,227.24694 287.916237,223.475624 L287.916237,148.293793 C287.916237,144.522477 284.858322,141.464561 281.087006,141.464561 L281.087006,141.464561 Z" id="darkColor" fill="#3166C9"></path>
                <path d="M72.0870745,103.295891 C61.0511169,103.024597 52.7515416,97.0963292 52.7515416,91.9886396 C52.7515416,89.4331212 55.0324175,85.6048662 57.8592303,85.6048662 C61.3257603,85.6048662 64.0621416,91.5331342 72.0870745,92.444145 L72.0870745,74.2942662 C63.7874983,71.1928101 54.3927002,67.6358486 54.3927002,55.9635237 C54.3927002,44.3816302 62.9669189,39.364372 72.0870745,38.1787188 L72.0870745,35.6231995 C72.0870745,34.4375453 73.4569397,33.3456726 75.1885298,33.3456726 C76.7392578,33.3456726 78.2899859,34.4375453 78.2899859,35.6231995 L78.2899859,37.9945068 C84.2182539,38.1787188 93.8843462,39.9103088 93.8843462,45.2022095 C93.8843462,47.2988735 92.4273987,51.4922032 89.0513,51.4922032 C86.4991298,51.4922032 84.3991167,48.574959 78.2899859,48.1194536 L78.2899859,64.1693194 C86.4053502,67.1803432 95.5255049,71.2832415 95.5255049,83.6890642 C95.5255049,94.9058838 88.5053633,101.380089 78.2899859,103.021248 L78.2899859,105.848061 C78.2899859,107.037064 76.7392578,108.128937 75.1885298,108.128937 C73.4569397,108.128937 72.0870745,107.037064 72.0870745,105.848061 L72.0870745,103.295891 Z M72.8172224,62.166435 L72.8172224,48.3940962 C68.2554705,49.120895 65.5190883,51.3113403 65.5190883,54.7778704 C65.5190883,58.7903364 68.6205444,60.5219273 72.8172224,62.166435 Z M77.5598371,76.4847107 L77.5598371,92.3537144 C81.572304,91.5331342 84.3991167,89.1618269 84.3991167,84.8747175 C84.3991167,80.403397 81.4818726,78.2163008 77.5598371,76.4847107 Z" id="darkColor" fill="#3166C9"></path>
                <path d="M197.732872,55.1797869 L133.995613,55.1797869 C130.445351,55.1797869 127.564949,52.2993853 127.564949,48.7491228 C127.564949,45.1988604 130.445351,42.3184588 133.995613,42.3184588 L197.732872,42.3184588 C201.283134,42.3184588 204.163536,45.1988604 204.163536,48.7491228 C204.163536,52.2993853 201.283134,55.1797869 197.732872,55.1797869 Z" id="Path" fill="#AAB2B9"></path>
                <path d="M197.732872,95.0733486 L133.995613,95.0733486 C130.445351,95.0733486 127.564949,92.1962969 127.564949,88.6426845 C127.564949,85.0924229 130.445351,82.2120204 133.995613,82.2120204 L197.732872,82.2120204 C201.283134,82.2120204 204.163536,85.0924229 204.163536,88.6426845 C204.163536,92.1962969 201.283134,95.0733486 197.732872,95.0733486 Z" id="Path" fill="#AAB2B9"></path>
                <path d="M312.426445,272.921402 C266.638107,272.921402 229.383797,310.172363 229.383797,355.960701 C229.383797,401.749039 266.634758,439 312.426445,439 L316.505898,439 C317.691551,439 318.897301,438.876076 320.093002,438.641624 C362.300934,434.759781 395.465744,399.163375 395.465744,355.960701 C395.462395,310.172363 358.211434,272.921402 312.426445,272.921402 L312.426445,272.921402 Z M317.31308,425.947762 C316.777191,425.984603 316.244652,426.028145 315.715462,426.054939 C314.623588,426.105179 313.528366,426.138672 312.426445,426.138672 C273.728585,426.138672 242.245125,394.655212 242.245125,355.960701 C242.245125,317.26284 273.728585,285.782731 312.426445,285.782731 C351.120956,285.782731 382.604415,317.26284 382.604415,355.960701 C382.601066,393.010704 353.733414,423.429085 317.31308,425.947762 L317.31308,425.947762 Z" id="Shape" fill="#434C54"></path>
                <path d="M54.2788243,135.037247 C46.967293,135.037247 41.0189287,140.985611 41.0189287,148.293793 L41.0189287,223.475624 C41.0189287,230.787155 46.967293,236.73217 54.2788243,236.73217 L281.087006,236.73217 C288.398537,236.73217 294.343551,230.783806 294.343551,223.475624 L294.343551,148.293793 C294.343551,140.982261 288.398537,135.037247 281.087006,135.037247 L54.2788243,135.037247 Z M223.026817,223.870842 L54.2788243,223.870842 C54.0577698,223.870842 53.8802569,223.693329 53.8802569,223.475624 L53.8802569,148.293793 C53.8802569,148.076088 54.0611189,147.898575 54.2788243,147.898575 L223.026817,147.898575 L223.026817,223.870842 Z M281.485573,148.293793 L281.485573,223.475624 C281.485573,223.693329 281.30806,223.870842 281.087006,223.870842 L235.888145,223.870842 L235.888145,147.898575 L281.087006,147.898575 C281.30806,147.898575 281.485573,148.076088 281.485573,148.293793 Z" id="Shape" fill="#434C54"></path>
                <path d="M252.822227,426.138672 L18.8599322,426.138672 C15.5541687,426.138672 12.8613281,423.445831 12.8613281,420.140068 L12.8613281,18.8599322 C12.8613281,15.5541687 15.5541687,12.8613281 18.8599322,12.8613281 L231.269455,12.8613281 L231.269455,86.445541 C231.269455,96.1819685 239.187211,104.099724 248.920288,104.099724 L322.504501,104.099724 L322.504501,251.810738 C322.504501,255.361 325.384903,258.241402 328.935165,258.241402 C332.488777,258.241402 335.365829,255.361 335.365829,251.810738 L335.365829,97.6690595 C335.365829,97.5953753 335.359131,97.5216902 335.355782,97.451355 C335.352433,97.3776699 335.349083,97.3073347 335.345734,97.2336504 C335.328987,96.962357 335.298844,96.6877136 335.245255,96.4197693 C335.245255,96.4164202 335.245255,96.4130702 335.245255,96.4130702 C335.191666,96.1384277 335.111283,95.8738325 335.0242,95.6125872 C335.000755,95.5456011 334.977311,95.478615 334.953865,95.4116289 C334.860085,95.16378 334.756256,94.919281 334.632332,94.6848301 C334.625633,94.6714321 334.622284,94.6580357 334.615585,94.6479876 C334.481613,94.4001386 334.330894,94.1656878 334.170128,93.9379351 C334.126587,93.8809971 334.086395,93.8274083 334.042855,93.7704695 C333.87204,93.5427168 333.687828,93.3250122 333.48687,93.1207049 L242.245125,1.88230853 C242.040817,1.68135114 241.823112,1.49713919 241.59536,1.32632446 C241.538422,1.28278372 241.484833,1.23924212 241.427895,1.19905133 C241.200142,1.03828473 240.96569,0.884216309 240.717842,0.75359323 C240.707794,0.746895051 240.694397,0.743545961 240.681,0.736846924 C240.446549,0.612922883 240.202049,0.509094238 239.954201,0.415313721 C239.887215,0.391868377 239.820229,0.368423891 239.753243,0.344978547 C239.491997,0.257896209 239.227401,0.177512908 238.956108,0.123924041 C238.94941,0.123924041 238.946061,0.123924041 238.939362,0.120574951 C238.674766,0.0703353453 238.406822,0.0401916504 238.135529,0.0200958252 C238.061844,0.0167464781 237.988159,0.0133972168 237.911125,0.0100479555 C237.84079,0.0100479555 237.770455,-2.84217094e-14 237.69677,-2.84217094e-14 L18.8599322,-2.84217094e-14 C8.46034284,-2.84217094e-14 -2.84217094e-14,8.46034284 -2.84217094e-14,18.8599322 L-2.84217094e-14,420.140068 C-2.84217094e-14,430.539657 8.46034284,439 18.8599322,439 L252.822227,439 C256.37249,439 259.252891,436.119598 259.252891,432.569336 C259.252891,429.019073 256.37249,426.138672 252.822227,426.138672 Z M244.127434,21.9546892 L313.411141,91.2383955 L248.920288,91.2383955 C246.277687,91.2383955 244.127434,89.0881426 244.127434,86.445541 L244.127434,21.9546892 Z" id="Shape" fill="#434C54"></path>
              </g>
            </g>
          </svg>