<svg xmlns="http://www.w3.org/2000/svg" width="21.271" height="21.271" viewBox="0 0 21.271 21.271">
  <path id="Icon_material-call" data-name="Icon material-call" d="M8.778,13.705a17.9,17.9,0,0,0,7.787,7.787l2.6-2.6a1.175,1.175,0,0,1,1.205-.284,13.48,13.48,0,0,0,4.219.674,1.185,1.185,0,0,1,1.182,1.182v4.124a1.185,1.185,0,0,1-1.182,1.182A20.087,20.087,0,0,1,4.5,5.682,1.185,1.185,0,0,1,5.682,4.5H9.818A1.185,1.185,0,0,1,11,5.682,13.424,13.424,0,0,0,11.673,9.9a1.186,1.186,0,0,1-.3,1.205l-2.6,2.6Z" transform="translate(-4.5 -4.5)" fill="#fff"/>
</svg>
