<svg width="100px" height="100px" viewBox="0 0 439 439" version="1.1" xmlns="http://www.w3.org/2000/svg" xmlns:xlink="http://www.w3.org/1999/xlink">
            <!-- Generator: Sketch 53.2 (72643) - https://sketchapp.com -->
            <title>Artboard</title>
            <desc>Created with Sketch.</desc>
            <g id="Artboard" stroke="none" stroke-width="1" fill="none" fill-rule="evenodd">
              <g id="036-cashier-machine" transform="translate(0.000000, 22.000000)" fill-rule="nonzero">
                <polygon id="mainColor" fill="#3166C9" points="304.153664 31.2758022 328.436119 31.2758022 328.436119 162.759438 304.153664 162.759438"></polygon>
                <path d="M387.095833,64.1090315 L245.49395,64.1090315 C241.062821,64.1090315 237.472367,60.5185774 237.472367,56.0840986 L237.472367,14.8843079 C237.472367,10.4498291 241.062821,6.859375 245.49395,6.859375 L387.095833,6.859375 C391.526962,6.859375 395.120766,10.4498291 395.120766,14.8843079 L395.120766,56.0874477 C395.120766,60.5185774 391.526962,64.1090315 387.095833,64.1090315 Z" id="Path" fill="#FFFFFF"></path>
                <path d="M387.095833,6.859375 L347.962563,6.859375 L347.962563,64.1123814 L387.095833,64.1123814 C391.526962,64.1123814 395.120766,60.5185774 395.120766,56.0874477 L395.120766,14.8843079 C395.120766,10.4498291 391.526962,6.859375 387.095833,6.859375 Z" id="Path" fill="#E2EBF9"></path>
                <path d="M381.261345,115.916069 L57.7386553,115.916069 C52.0783308,115.916069 47.3491132,120.233322 46.8366699,125.870201 L28.4724348,333.061508 L410.527565,333.061508 L392.16333,125.870201 C391.650887,120.229973 386.921669,115.916069 381.261345,115.916069 Z" id="Path" fill="#C1C8D2"></path>
                <path d="M392.16333,125.870201 C391.650887,120.233322 386.921669,115.916069 381.261345,115.916069 L343.444352,115.916069 L362.55883,333.061508 L410.527565,333.061508 L392.16333,125.870201 Z" id="Path" fill="#AAB2B9"></path>
                <path d="M422.142952,323.465751 L16.8570478,323.465751 C11.0995937,323.465751 6.43066406,328.134682 6.43066406,333.892135 L6.43066406,377.610604 C6.43066406,383.371407 11.0995937,388.040336 16.8570478,388.040336 L422.142952,388.040336 C427.900406,388.040336 432.569336,383.371407 432.569336,377.610604 L432.569336,333.892135 C432.569336,328.134682 427.900406,323.465751 422.142952,323.465751 L422.142952,323.465751 Z" id="mainColor" fill="#3166C9"></path>
                <path d="M422.142952,323.465751 L385.411133,323.465751 L385.411133,388.040336 L422.142952,388.040336 C427.900406,388.040336 432.569336,383.371407 432.569336,377.610604 L432.569336,333.892135 C432.569336,328.134682 427.900406,323.465751 422.142952,323.465751 L422.142952,323.465751 Z" id="darkColor" fill="#3166C9"></path>
                <path d="M355.170265,185.561501 L216.133949,185.561501 C214.218147,185.561501 212.667419,184.007424 212.667419,182.091622 L212.667419,143.430603 C212.667419,141.514801 214.218147,139.960724 216.133949,139.960724 L355.170265,139.960724 C357.086067,139.960724 358.636795,141.514801 358.636795,143.430603 L358.636795,182.091622 C358.640145,184.007424 357.086067,185.561501 355.170265,185.561501 Z" id="mainColor" fill="#3166C9"></path>
                <path d="M311.478592,139.960724 L311.478592,185.561501 L355.170265,185.561501 C357.086067,185.561501 358.636795,184.007424 358.636795,182.091622 L358.636795,143.430603 C358.640145,141.514801 357.086067,139.960724 355.170265,139.960724 L311.478592,139.960724 Z" id="darkColor" fill="#3166C9"></path>
                <g id="Group" transform="translate(212.640625, 209.210938)" fill="#FFFFFF">
                  <path d="M28.0403748,31.7279585 L3.12155151,31.7279585 C1.4134068,31.7279585 0.0267944336,30.341347 0.0267944336,28.6332014 L0.0267944336,3.71102905 C0.0267944336,2.00288434 1.4134068,0.616271973 3.12155151,0.616271973 L28.0403748,0.616271973 C29.7518694,0.616271973 31.1384809,2.00288434 31.1384809,3.71102905 L31.1384809,28.6332014 C31.1384809,30.341347 29.7518694,31.7279585 28.0403748,31.7279585 Z" id="Path"></path>
                  <path d="M85.4708941,31.7279585 L60.5520708,31.7279585 C58.8405762,31.7279585 57.4539638,30.341347 57.4539638,28.6332014 L57.4539638,3.71102905 C57.4539638,2.00288434 58.8405762,0.616271973 60.5520708,0.616271973 L85.4708941,0.616271973 C87.1823887,0.616271973 88.5690002,2.00288434 88.5690002,3.71102905 L88.5690002,28.6332014 C88.5690002,30.341347 87.1823887,31.7279585 85.4708941,31.7279585 Z" id="Path"></path>
                  <path d="M142.901413,31.7279585 L117.982589,31.7279585 C116.271095,31.7279585 114.884483,30.341347 114.884483,28.6332014 L114.884483,3.71102905 C114.884483,2.00288434 116.271095,0.616271973 117.982589,0.616271973 L142.901413,0.616271973 C144.612907,0.616271973 145.99952,2.00288434 145.99952,3.71102905 L145.99952,28.6332014 C145.99952,30.341347 144.609558,31.7279585 142.901413,31.7279585 Z" id="Path"></path>
                  <path d="M28.0403748,84.348877 L3.12155151,84.348877 C1.4134068,84.348877 0.0267944336,82.9622646 0.0267944336,81.2541199 L0.0267944336,56.3319475 C0.0267944336,54.623802 1.4134068,53.2371905 3.12155151,53.2371905 L28.0403748,53.2371905 C29.7518694,53.2371905 31.1384809,54.623802 31.1384809,56.3319475 L31.1384809,81.2541199 C31.1384809,82.9622646 29.7518694,84.348877 28.0403748,84.348877 Z" id="Path"></path>
                  <path d="M85.4708941,84.348877 L60.5520708,84.348877 C58.8405762,84.348877 57.4539638,82.9622646 57.4539638,81.2541199 L57.4539638,56.3319475 C57.4539638,54.623802 58.8405762,53.2371905 60.5520708,53.2371905 L85.4708941,53.2371905 C87.1823887,53.2371905 88.5690002,54.623802 88.5690002,56.3319475 L88.5690002,81.2541199 C88.5690002,82.9622646 87.1823887,84.348877 85.4708941,84.348877 Z" id="Path"></path>
                  <path d="M142.901413,84.348877 L117.982589,84.348877 C116.271095,84.348877 114.884483,82.9622646 114.884483,81.2541199 L114.884483,56.3319475 C114.884483,54.623802 116.271095,53.2371905 117.982589,53.2371905 L142.901413,53.2371905 C144.612907,53.2371905 145.99952,54.623802 145.99952,56.3319475 L145.99952,81.2541199 C145.99952,82.9622646 144.609558,84.348877 142.901413,84.348877 Z" id="Path"></path>
                </g>
                <path d="M298.419655,359.778908 L140.580345,359.778908 C135.234855,359.778908 130.900856,364.112907 130.900856,369.458397 L130.900856,388.036987 L308.099144,388.036987 L308.099144,369.458397 C308.099144,364.112907 303.765145,359.778908 298.419655,359.778908 Z" id="darkColor" fill="#3166C9"></path>
                <path d="M158.817306,40.4830401 L150.752182,38.0213013 C149.874664,37.7533569 148.936859,37.7533569 148.059342,38.0213013 L140.000916,40.479691 C139.123397,40.7476353 138.185592,40.7476353 137.304726,40.479691 L129.2463,38.0213013 C128.368782,37.7533569 127.427628,37.7533569 126.55011,38.0213013 L118.495033,40.479691 C117.617515,40.7476353 116.676361,40.7476353 115.798844,40.479691 L107.747116,38.0213013 C106.866249,37.7533569 105.928444,37.7533569 105.050926,38.0213013 L96.9925005,40.479691 C96.1149824,40.7476353 95.1771772,40.7476353 94.29631,40.479691 L86.1407549,37.9911577 C85.5177839,37.8002476 84.8948138,38.2658003 84.8948138,38.9122158 L84.8948138,155.427811 L170.925041,155.427811 L170.925041,38.9155657 C170.925041,38.2658003 170.298722,37.8035967 169.6791,37.9911577 L161.510148,40.4830401 C160.635978,40.7476353 159.698173,40.7476353 158.817306,40.4830401 Z" id="lightColor" fill="#3166C9"></path>
                <path d="M169.6791,37.9911577 L161.513497,40.4830401 C160.635978,40.7476353 159.698173,40.7476353 158.817306,40.4830401 L150.752182,38.0213013 C149.874664,37.7533569 148.936859,37.7533569 148.059342,38.0213013 L140.000916,40.479691 C139.123397,40.7476353 138.185592,40.7476353 137.304726,40.479691 L129.2463,38.0213013 C128.368782,37.7533569 127.427628,37.7533569 126.55011,38.0213013 L123.766838,38.872025 L123.766838,155.427811 L170.925041,155.427811 L170.925041,38.9155657 C170.925041,38.2658003 170.298722,37.8035967 169.6791,37.9911577 Z" id="darkColor" fill="#3166C9"></path>
                <path d="M126.339103,126.041016 C116.612724,125.799866 109.294495,120.571602 109.294495,116.070137 C109.294495,113.819405 111.304077,110.443306 113.799309,110.443306 C116.853874,110.443306 119.265373,115.668221 126.339103,116.472054 L126.339103,100.475777 C119.024223,97.7393956 110.741394,94.6044468 110.741394,84.3153843 C110.741394,74.1033552 118.300773,69.6822737 126.339103,68.6372907 L126.339103,66.3865583 C126.339103,65.3415754 127.544853,64.3769758 129.072136,64.3769758 C130.438652,64.3769758 131.805168,65.3415754 131.805168,66.3865583 L131.805168,68.4765241 C137.033432,68.6372907 145.554061,70.1645735 145.554061,74.8268049 C145.554061,76.6756208 144.267929,80.3732527 141.293747,80.3732527 C139.043014,80.3732527 137.194198,77.800987 131.805168,77.3990705 L131.805168,91.5498814 C138.962631,94.2025303 147.000961,97.8197789 147.000961,108.755257 C147.000961,118.642403 140.811447,124.349617 131.805168,125.799866 L131.805168,128.288399 C131.805168,129.336731 130.438652,130.301331 129.072136,130.301331 C127.544853,130.301331 126.339103,129.336731 126.339103,128.288399 L126.339103,126.041016 Z M126.98217,89.7814488 L126.98217,77.6435704 C122.963005,78.2866368 120.551506,80.215836 120.551506,83.2704014 C120.551506,86.8072667 123.284538,88.3345494 126.98217,89.7814488 Z M131.162102,102.401627 L131.162102,116.39167 C134.702316,115.668221 137.194198,113.578255 137.194198,109.80024 C137.194198,105.861458 134.621933,103.932259 131.162102,102.401627 Z" id="Shape" fill="#434C54"></path>
                <path d="M374.385223,41.9165423 L300.613449,41.9165423 C297.063187,41.9165423 294.182785,39.0361407 294.182785,35.4858782 C294.182785,31.9322667 297.063187,29.0552141 300.613449,29.0552141 L374.385223,29.0552141 C377.935486,29.0552141 380.815887,31.9322667 380.815887,35.4858782 C380.815887,39.0361407 377.935486,41.9165423 374.385223,41.9165423 Z" id="Path" fill="#AAB2B9"></path>
                <path d="M270.690765,41.9165423 L258.207908,41.9165423 C254.657646,41.9165423 251.777244,39.0361407 251.777244,35.4858782 C251.777244,31.9322667 254.657646,29.0552141 258.207908,29.0552141 L270.690765,29.0552141 C274.244377,29.0552141 277.121429,31.9322667 277.121429,35.4858782 C277.121429,39.0361407 274.244377,41.9165423 270.690765,41.9165423 Z" id="Path" fill="#AAB2B9"></path>
                <path d="M74.4684291,161.858475 L181.351425,161.858475 C184.901688,161.858475 187.782089,158.981423 187.782089,155.427811 C187.782089,151.877548 184.901688,148.997147 181.351425,148.997147 L177.355705,148.997147 L177.355705,38.9155657 C177.355705,36.5811 176.237038,34.360512 174.364777,32.9738996 C172.489166,31.583939 170.040825,31.1619263 167.803489,31.8418352 L160.167076,34.169601 L152.631142,31.8719788 C150.52108,31.2289124 148.290444,31.2289124 146.183732,31.8719788 L138.654496,34.169601 L131.12526,31.8719788 C129.015198,31.2289124 126.784562,31.2289124 124.6745,31.8719788 L117.148613,34.169601 L109.622726,31.8719788 C107.512665,31.2289124 105.285378,31.2289124 103.175316,31.8719788 L95.6460798,34.169601 L88.0197144,31.8418352 C85.7890782,31.1619263 83.3373867,31.5805891 81.4617763,32.9705505 C79.586166,34.357162 78.4641497,36.5811 78.4641497,38.9155657 L78.4641497,148.997147 L74.4684291,148.997147 C70.9181675,148.997147 68.0377651,151.877548 68.0377651,155.427811 C68.0377651,158.981423 70.9181675,161.858475 74.4684291,161.858475 Z M91.3254778,46.2974322 L92.4206996,46.6323626 C94.5307617,47.275429 96.7613979,47.275429 98.87146,46.6323626 L106.397347,44.3347395 L113.923233,46.6323626 C116.033295,47.275429 118.263932,47.275429 120.370644,46.6323626 L127.89988,44.3347395 L135.429116,46.6323626 C137.539177,47.275429 139.769814,47.275429 141.879875,46.6323626 L149.405762,44.3347395 L156.941696,46.6323626 C159.051758,47.275429 161.282394,47.275429 163.389107,46.6323626 L164.494377,46.2940831 L164.494377,148.997147 L91.3254778,148.997147 L91.3254778,46.2974322 Z" id="Shape" fill="#434C54"></path>
                <path d="M422.142952,317.035087 L415.561569,317.035087 L398.570549,125.284073 C397.74662,116.277794 390.307816,109.485405 381.261345,109.485405 L334.866783,109.485405 L334.866783,70.5396955 L387.095833,70.5396955 C395.067177,70.5396955 401.55143,64.0554426 401.55143,56.0874477 L401.55143,14.8843079 C401.55143,6.91296387 395.067177,0.428710937 387.095833,0.428710937 L245.49395,0.428710937 C237.525956,0.428710937 231.041703,6.91296387 231.041703,14.8843079 L231.041703,56.0874477 C231.041703,64.0587925 237.525956,70.5396955 245.49395,70.5396955 L297.726349,70.5396955 L297.726349,109.485405 L201.279785,109.485405 C197.729523,109.485405 194.849121,112.362457 194.849121,115.916069 C194.849121,119.466331 197.729523,122.346733 201.279785,122.346733 L381.261345,122.346733 C383.612557,122.346733 385.545105,124.111816 385.75946,126.436234 L402.650002,317.035087 L36.3499983,317.035087 L53.2405396,126.45298 C53.4080043,124.594116 54.7276306,123.009896 56.5195086,122.510849 C59.942497,121.556297 61.9420323,118.012734 60.9874799,114.589744 C60.0362776,111.170105 56.4893642,109.170571 53.0663757,110.121773 C46.1601109,112.047623 41.0825649,118.140007 40.4294512,125.30082 L23.4384312,317.035087 L16.8603969,317.035087 C7.56272845,317.035087 5.68434189e-14,324.597817 5.68434189e-14,333.892135 L5.68434189e-14,377.610604 C5.68434189e-14,386.904923 7.56272845,394.467651 16.8570478,394.467651 L422.142952,394.467651 C431.437272,394.467651 439,386.904923 439,377.610604 L439,333.892135 C439,324.597817 431.437272,317.035087 422.142952,317.035087 L422.142952,317.035087 Z M243.903031,56.0874477 L243.903031,14.8843079 C243.903031,14.0067906 244.616432,13.2900391 245.49395,13.2900391 L387.095833,13.2900391 C387.97335,13.2900391 388.686752,14.0067906 388.686752,14.8843079 L388.686752,56.0874477 C388.686752,56.9649658 387.97335,57.6783674 387.095833,57.6783674 L245.49395,57.6783674 C244.616432,57.6783674 243.903031,56.9649658 243.903031,56.0874477 Z M310.584328,109.485405 L310.584328,70.5396955 L322.005455,70.5396955 L322.005455,109.485405 L310.584328,109.485405 Z M426.138672,377.610604 C426.138672,379.814445 424.346794,381.606323 422.142952,381.606323 L16.8570478,381.606323 C14.6532061,381.606323 12.8613281,379.814445 12.8613281,377.610604 L12.8613281,333.892135 C12.8613281,331.688293 14.6532061,329.896415 16.8570478,329.896415 L422.142952,329.896415 C424.346794,329.896415 426.138672,331.688293 426.138672,333.892135 L426.138672,377.610604 Z" id="Shape" fill="#434C54"></path>
                <path d="M355.170265,191.992165 C360.629631,191.992165 365.06746,187.550987 365.06746,182.091622 L365.06746,143.427254 C365.06746,137.971237 360.629631,133.53006 355.170265,133.53006 L216.133949,133.53006 C210.674583,133.53006 206.236755,137.971237 206.236755,143.427254 L206.236755,182.091622 C206.236755,187.550987 210.677933,191.992165 216.133949,191.992165 L355.170265,191.992165 Z M219.098083,146.391388 L352.209481,146.391388 L352.209481,179.130837 L219.098083,179.130837 L219.098083,146.391388 Z" id="Shape" fill="#434C54"></path>
              </g>
            </g>
          </svg>