<svg id="credit-card" xmlns="http://www.w3.org/2000/svg" width="22.963" height="15.858" viewBox="0 0 22.963 15.858">
  <ellipse id="Ellipse_1" data-name="Ellipse 1" cx="3.277" cy="3.277" rx="3.277" ry="3.277" transform="translate(16.071 0.336)" fill="#fff"/>
  <path id="Path_27" data-name="Path 27" d="M383.112,87.54a3.277,3.277,0,0,1-2.292,5.62,3.3,3.3,0,0,1-.5-.038,3.278,3.278,0,1,0,2.79-5.583Z" transform="translate(-363.265 -87.166)" fill="#fff"/>
  <path id="Path_28" data-name="Path 28" d="M23.235,157.547q0-.053,0-.1H9.092A1.592,1.592,0,0,0,7.5,159.034v8.83a1.592,1.592,0,0,0,1.592,1.592H24.921a1.592,1.592,0,0,0,1.592-1.592v-7.039A3.277,3.277,0,0,1,23.235,157.547Z" transform="translate(-7.164 -153.933)" fill="#3166c9"/>
  <path id="Path_29" data-name="Path 29" d="M28.11,220.947v4.1a4.167,4.167,0,0,1-4.167,4.167H11.051a1.592,1.592,0,0,0,1.432.9H28.313A1.592,1.592,0,0,0,29.9,228.52v-7.039A3.262,3.262,0,0,1,28.11,220.947Z" transform="translate(-10.555 -214.59)" fill="#3166c9"/>
  <path id="Path_32" data-name="Path 32" d="M389.1,127.267l-1.608,1.608a.092.092,0,0,1-.13,0l-.574-.574a.092.092,0,0,0-.13,0l-.729.729a.092.092,0,0,0,0,.13l1.433,1.433a.092.092,0,0,0,.13,0l2.467-2.467a.092.092,0,0,0,0-.13l-.729-.729A.092.092,0,0,0,389.1,127.267Z" transform="translate(-368.597 -125.086)" fill="#f6f9f9"/>
  <path id="Path_33" data-name="Path 33" d="M461.075,131.814a3.32,3.32,0,0,1,.019.357,3.273,3.273,0,0,1-.16,1.014l.691-.691a.092.092,0,0,0,0-.13Z" transform="translate(-440.262 -129.454)" fill="#e7ecf1"/>
  <path id="Path_34" data-name="Path 34" d="M24.131,209.989H7.5v2.163H26.513v-1.138A3.268,3.268,0,0,1,24.131,209.989Z" transform="translate(-7.164 -204.123)" fill="#fff"/>
  <path id="Path_35" data-name="Path 35" d="M391.423,220.947v1.672h1.794v-1.138h0A3.261,3.261,0,0,1,391.423,220.947Z" transform="translate(-373.868 -214.59)" fill="#fff"/>
  <path id="Path_36" data-name="Path 36" d="M171.792,337.4a.336.336,0,1,0,0,.673h1.384a.336.336,0,0,0,0-.673Z" transform="translate(-163.766 -325.82)" fill="#fff"/>
  <path id="Path_37" data-name="Path 37" d="M228.318,337.4a.336.336,0,0,0,0,.673H229.7a.336.336,0,1,0,0-.673Z" transform="translate(-217.757 -325.82)" fill="#fff"/>
  <path id="Path_38" data-name="Path 38" d="M284.844,337.4a.336.336,0,0,0,0,.673h1.384a.336.336,0,1,0,0-.673Z" transform="translate(-271.748 -325.82)" fill="#fff"/>
  <path id="Path_39" data-name="Path 39" d="M342.444,324.4a.383.383,0,0,0-.383.383v1.073a.383.383,0,0,0,.383.383h1.968a.383.383,0,0,0,.383-.383v-1.073a.383.383,0,0,0-.383-.383Zm1.677,1.166h-1.387v-.493h1.387Z" transform="translate(-326.72 -313.408)" fill="#fff"/>
  <path id="Path_40" data-name="Path 40" d="M380.563,123.665l2.467-2.467a.428.428,0,0,0,0-.606l-.728-.728a.428.428,0,0,0-.606,0L380.26,121.3l-.4-.4a.429.429,0,0,0-.606,0l-.729.729a.428.428,0,0,0,0,.606l1.432,1.432A.428.428,0,0,0,380.563,123.665Zm-1.007-2.118.4.4a.428.428,0,0,0,.606,0L382,120.512l.383.383-2.121,2.121-1.087-1.087Z" transform="translate(-361.428 -117.92)" fill="#3166c9"/>
  <path id="Path_41" data-name="Path 41" d="M19.349,79.2a3.6,3.6,0,0,0-2.458.965.336.336,0,0,0,.458.493,2.931,2.931,0,1,1-.783,1.2.336.336,0,1,0-.637-.218,3.59,3.59,0,0,0-.167.729H1.928A1.93,1.93,0,0,0,0,84.3v8.83A1.93,1.93,0,0,0,1.928,95.06H17.757a1.93,1.93,0,0,0,1.928-1.928V90.759a.336.336,0,1,0-.673,0v2.374a1.257,1.257,0,0,1-1.255,1.255H1.928A1.257,1.257,0,0,1,.673,93.132V87.567H2.606a.336.336,0,1,0,0-.673H.673V85.4H16.829a3.6,3.6,0,0,0,2.183,1.01v.48H4.175a.336.336,0,0,0,0,.673H19.013v1.622a.336.336,0,0,0,.673,0V86.414a3.614,3.614,0,0,0-.336-7.212ZM.673,84.3a1.257,1.257,0,0,1,1.255-1.255H15.742a3.59,3.59,0,0,0,.543,1.684H.673Z" transform="translate(0 -79.202)" fill="#3166c9"/>
</svg>
