<svg width="100px" height="100px" viewBox="0 0 439 439" version="1.1" xmlns="http://www.w3.org/2000/svg" xmlns:xlink="http://www.w3.org/1999/xlink">
            <!-- Generator: Sketch 53.2 (72643) - https://sketchapp.com -->
            <title>Artboard</title>
            <desc>Created with Sketch.</desc>
            <g id="Artboard" stroke="none" stroke-width="1" fill="none" fill-rule="evenodd">
              <g id="032-credit-card" transform="translate(5.000000, 29.000000)" fill-rule="nonzero">
                <path d="M430.740616,127.407532 L241.461387,316.683411 C239.023094,319.121704 235.067566,319.121704 232.629272,316.683411 L122.309891,206.364029 C119.871598,203.925736 119.871598,199.970207 122.309891,197.531914 L311.58577,8.25268555 C314.027413,5.81439209 317.982941,5.81439209 320.421234,8.25268555 L430.740616,118.572067 C433.17891,121.01371 433.17891,124.965889 430.740616,127.407532 Z" id="mainColor" fill="#3166C9"></path>
                <path d="M430.740616,118.572067 L400.891617,88.7230678 L202.780273,286.834412 L232.629272,316.683411 C235.067566,319.121704 239.023094,319.121704 241.461387,316.683411 L430.740616,127.407532 C433.17891,124.965889 433.17891,121.01371 430.740616,118.572067 L430.740616,118.572067 Z" id="mainColor" fill="#3166C9"></path>
                <polygon id="darkColor" fill="#3166C9" points="193.251503 277.30899 391.359497 79.2009966 415.46109 103.30259 217.353096 301.410583"></polygon>
                <polygon id="darkColor" fill="#3166C9" points="202.776924 286.831063 400.884918 88.7230678 415.46109 103.29924 217.353096 301.407234"></polygon>
                <path d="M232.68956,254.861954 L294.313408,193.238106 C301.413933,186.137581 304.435005,177.643746 297.331131,170.539872 C286.141105,156.640259 245.282943,167.786743 225.900521,187.169167 C216.502373,196.567314 205.83149,207.238198 199.950112,213.122925 C197.073059,216.003326 193.17112,217.621041 189.048126,217.621041 L188.83712,217.621041 C182.038033,217.621041 174.073387,211.036308 172.321701,204.468323 L172.318352,147.523453 L182.48349,137.354965 L193.656769,126.185036 L238.0317,81.8101039 C219.774643,79.7670288 201.621415,78.6584089 194.581177,77.8143842 C186.750504,76.8765791 180.071991,80.3866499 173.999703,85.4106062 L117.192154,130.227645 C109.17392,136.859269 103.39637,145.795211 100.626495,155.826378 C94.4269331,178.290161 81.3646467,218.026306 73.0717695,233.828324 L31.6542742,275.245819 L103.359528,346.947723 L123.301285,327.005966 C127.049156,323.258095 131.684593,320.518364 136.775535,319.04467 L178.424133,305.017784 C191.509865,300.529716 203.024772,292.374161 211.60569,281.522416 L232.68956,254.861954 Z" id="Path" fill="#FFFFFF"></path>
                <path d="M211.60569,281.522416 L232.68956,254.861954 L294.313408,193.238106 C301.413933,186.134232 304.435005,177.640397 297.331131,170.539872 C293.218185,165.428833 285.096123,163.707291 275.503715,164.531219 C261.456734,165.740318 248.364303,172.160934 238.393425,182.131813 L199.176422,221.348816 L178.095902,248.009277 C169.514984,258.861023 157.996727,267.016579 144.914345,271.504647 L103.262398,285.528183 C98.1714556,287.005226 93.5393677,289.744957 89.7914961,293.492828 L69.8497393,313.434586 L103.359528,346.947723 L123.301285,327.005966 C127.049156,323.258095 131.684593,320.518364 136.775535,319.041321 L178.424133,305.017784 C191.509865,300.529716 203.028122,292.374161 211.60569,281.522416 L211.60569,281.522416 Z" id="Path" fill="#3166C9"></path>
                <path d="M8.73833444,286.901398 C5.66032367,283.826737 5.66032367,278.839622 8.73833444,275.764961 L23.3413007,261.158646 C26.4159624,258.083984 31.4030762,258.083984 34.4810869,261.158646 L117.470146,344.151054 C120.548157,347.225716 120.548157,352.21283 117.470146,355.287491 L102.86718,369.893807 C99.7925188,372.968467 94.8054042,372.968467 91.7273943,369.893807 L8.73833444,286.901398 Z" id="mainColor" fill="#3166C9"></path>
                <path d="M117.470146,344.151054 L89.3225935,316.003502 L63.5798418,341.746254 L91.7273943,369.893807 C94.8054042,372.968467 99.7925188,372.968467 102.86718,369.893807 L117.470146,355.287491 C120.548157,352.21283 120.548157,347.225716 117.470146,344.151054 L117.470146,344.151054 Z" id="Path" fill="#E2EBF9"></path>
                <path d="M291.875114,191.318954 C283.696114,183.139954 270.436218,183.139954 262.257218,191.318954 L252.95285,200.623322 C248.742775,204.833397 248.742775,211.659279 252.95285,215.869354 L262.317505,225.234009 L294.052162,193.496002 L291.875114,191.318954 Z" id="Path" fill="#C1C8D2"></path>
                <path d="M304.833573,74.0129238 C298.513436,67.6927874 288.267914,67.6927874 281.947777,74.0129238 C275.62764,80.3297119 275.62764,90.5785828 281.947777,96.89872 C288.267914,103.215507 298.513436,103.215507 304.833573,96.89872 C311.153709,90.5785828 311.153709,80.3297119 304.833573,74.0129238 Z" id="Path" fill="#F3E8D7"></path>
                <path d="M319.955681,58.8908159 C313.635543,52.5706787 303.390022,52.5706787 297.069885,58.8908159 C290.749748,65.2109532 290.749748,75.4564741 297.069885,81.7766113 C303.390022,88.0967486 313.635543,88.0967486 319.955681,81.7766113 C326.275818,75.4564741 326.275818,65.2109532 319.955681,58.8908159 L319.955681,58.8908159 Z" id="Path" fill="#F3E8D7"></path>
                <path d="M304.833573,74.0129238 C298.513436,67.6927874 288.267914,67.6927874 281.947777,74.0129238 C275.62764,80.3297119 275.62764,90.5785828 281.947777,96.89872 C288.267914,103.215507 298.513436,103.215507 304.833573,96.89872 C311.153709,90.5785828 311.153709,80.3297119 304.833573,74.0129238 Z" id="Path" fill="#FFFFFF"></path>
                <path d="M319.955681,58.8908159 C313.635543,52.5706787 303.390022,52.5706787 297.069885,58.8908159 C290.749748,65.2109532 290.749748,75.4564741 297.069885,81.7766113 C303.390022,88.0967486 313.635543,88.0967486 319.955681,81.7766113 C326.275818,75.4564741 326.275818,65.2109532 319.955681,58.8908159 L319.955681,58.8908159 Z" id="darkColor" fill="#3166C9"></path>
                <path d="M435.285622,114.023712 L324.969589,3.70767996 C320.026017,-1.23589304 311.984337,-1.23589304 307.040764,3.70767996 L255.019371,55.7257237 C252.507393,58.2410505 252.507393,62.3104553 255.019371,64.822433 C257.531349,67.3310625 261.600753,67.3344116 264.112732,64.822433 L316.003502,12.9316633 L426.061638,122.989799 L237.047005,312.004433 L213.866471,288.823898 C214.817672,287.745422 215.755477,286.646851 216.649742,285.511436 L237.499161,259.145714 L298.858414,197.786461 C309.499153,187.145721 310.728348,175.084877 302.113937,166.229317 C297.977547,161.292442 291.228699,158.438835 282.567399,157.973282 C263.11464,156.928299 236.219727,167.753251 221.352165,182.620811 C211.954018,192.018959 201.283134,202.693192 195.398407,208.577919 C193.717057,210.262619 191.459625,211.190376 189.048126,211.190376 L188.833771,211.190376 C185.27681,211.190376 180.189217,207.211403 178.749016,203.47358 L178.745667,150.186149 L242.573356,86.3584595 C244.321694,84.6101231 244.91452,82.0177612 244.09729,79.6832964 C243.28006,77.3521807 241.200142,75.6942749 238.745102,75.4196324 C227.890007,74.2038347 217.212425,73.3296666 208.634857,72.6229632 C202.756828,72.1406634 198.114693,71.7621913 195.341469,71.4306109 C186.817489,70.4090733 178.514565,73.3430629 169.957092,80.4067461 L113.206482,125.176896 C113.169639,125.207039 113.129448,125.240532 113.092606,125.270675 C104.01934,132.776467 97.5652309,142.750694 94.4269331,154.114884 C88.5422058,175.429855 75.824898,214.198051 67.8133623,229.986672 L40.107918,257.695465 L39.0227434,256.610291 C36.3232038,253.910751 32.7294006,252.420311 28.9078448,252.420311 C25.086288,252.420311 21.4958339,253.910751 18.7929461,256.610291 L4.18997977,271.216606 C1.48709106,273.919495 5.68434189e-14,277.513298 5.68434189e-14,281.334855 C5.68434189e-14,285.15306 1.48709106,288.746865 4.18997977,291.449752 L87.1823887,374.442161 C89.8819275,377.141701 93.4757307,378.632141 97.2972866,378.632141 C101.118843,378.632141 104.709297,377.14505 107.412186,374.442161 L122.018501,359.835846 C124.72139,357.136307 126.20848,353.542503 126.20848,349.720947 C126.20848,345.899391 124.72139,342.305587 122.018501,339.602699 L120.909882,338.49408 L127.84964,331.554321 C130.820473,328.580139 134.528153,326.389694 138.564064,325.220787 C138.654496,325.193992 138.741577,325.167198 138.828659,325.137054 L180.51075,311.10012 C189.32277,308.075699 197.454879,303.54409 204.588898,297.739746 L228.080917,321.228416 C230.47567,323.623169 233.660858,324.942794 237.047005,324.942794 C240.433151,324.942794 243.618339,323.623169 246.009743,321.231766 L435.285622,131.952537 C437.680375,129.561135 439,126.375946 439,122.989799 C439,119.603653 437.680375,116.421814 435.285622,114.023712 L435.285622,114.023712 Z M112.92514,350.742485 L98.318825,365.345451 C97.7561419,365.911483 96.8384321,365.908134 96.275749,365.345451 L13.2833409,282.353043 C12.9350132,282.004715 12.8613281,281.606148 12.8613281,281.334855 C12.8613281,281.060211 12.9350132,280.661644 13.2833409,280.313316 L27.8896563,265.707001 C28.1709978,265.425659 28.5394209,265.284989 28.9111938,265.284989 C29.2796177,265.284989 29.6513899,265.425659 29.9327314,265.707001 L112.92514,348.69941 C113.273468,349.051086 113.347152,349.449654 113.347152,349.720947 C113.347152,349.992241 113.273468,350.390808 112.92514,350.742485 L112.92514,350.742485 Z M176.37101,298.925399 L134.846336,312.908745 C128.784096,314.690574 123.224251,317.98964 118.75293,322.46096 L111.813171,329.400718 L49.2046282,266.792175 L77.620125,238.376678 C78.0789795,237.914474 78.4641497,237.391983 78.7655866,236.815902 C87.2661211,220.615318 100.522667,180.363381 106.826058,157.537872 C109.250954,148.752647 114.234719,141.0392 121.234764,135.228157 L177.982025,90.4613569 C178.018868,90.4312134 178.059059,90.3977208 178.095902,90.3675764 C183.97393,85.5043867 188.820374,83.5952837 193.814186,84.2015076 C196.825211,84.5598833 201.574524,84.9517517 207.583175,85.4440996 C212.463112,85.8426671 218.029655,86.3015215 223.904335,86.8441084 L167.766647,142.978447 C166.560897,144.184196 165.884338,145.822006 165.884338,147.526802 L165.887687,204.471672 C165.887687,205.027657 165.961373,205.586991 166.105392,206.126229 C168.654213,215.675094 179.274857,224.051705 188.833771,224.051705 L189.048126,224.051705 C194.896012,224.051705 200.382172,221.784225 204.495117,217.67128 C210.376495,211.786552 221.047379,201.11232 230.445526,191.717521 C242.827904,179.335144 265.911308,169.947044 281.874092,170.817863 C286.877952,171.085808 290.585632,172.42218 292.320572,174.575783 C292.464592,174.753296 292.61866,174.92746 292.782776,175.088226 C294.229675,176.535126 298.074677,180.383476 289.765053,188.6931 L228.137856,250.316948 C227.963692,250.494461 227.796226,250.678673 227.642159,250.876282 L206.561638,277.536743 C204.652535,279.948242 202.589363,282.209023 200.385521,284.312386 C200.365425,284.335831 200.338631,284.352577 200.318535,284.372673 C200.301788,284.38942 200.29174,284.406166 200.274994,284.422913 C193.462509,290.900467 185.330399,295.850739 176.37101,298.925399 Z" id="Shape" fill="#434C54"></path>
              </g>
            </g>
          </svg>