<svg width="100px" height="100px" viewBox="0 0 439 439" version="1.1" xmlns="http://www.w3.org/2000/svg" xmlns:xlink="http://www.w3.org/1999/xlink">
            <!-- Generator: Sketch 53.2 (72643) - https://sketchapp.com -->
            <title>Artboard</title>
            <desc>Created with Sketch.</desc>
            <g id="Artboard" stroke="none" stroke-width="1" fill="none" fill-rule="evenodd">
              <g id="trucking" transform="translate(1.000000, 79.000000)" fill-rule="nonzero">
                <path d="M430.470367,204.901535 C430.478941,208.677621 427.429092,211.735187 423.653863,211.743762 L390.825752,211.795207 C383.710008,199.562369 370.443119,191.344838 355.271896,191.370561 C340.0921,191.396283 326.850934,199.673834 319.786635,211.949543 L293.809324,211.991557 L293.66442,136.817951 L429.471471,136.561582 C430.051945,138.765156 430.351186,141.054473 430.35976,143.395234 L430.394057,163.897049 L416.725895,163.922771 C412.966957,163.931346 409.900816,167.006918 409.909391,170.764998 L409.917965,177.59865 C409.926539,181.357588 413.010686,184.432303 416.768766,184.423729 L430.436928,184.398006 L430.470367,204.901535 Z" id="Path" fill="#A0A0A0"></path>
                <path d="M430.394057,163.897906 L430.436928,184.399721 L416.768766,184.425443 C413.009828,184.434018 409.926539,181.358445 409.917965,177.600365 L409.909391,170.766713 C409.900816,167.007775 412.967814,163.933061 416.725895,163.924486 L430.394057,163.897906 Z" id="Path" fill="#FFFFFF"></path>
                <path d="M429.471471,136.562439 L293.66442,136.818809 L293.612975,109.483342 L389.288395,109.304141 L415.197969,118.974145 C422.381449,122.544449 427.514834,129.019699 429.471471,136.562439 Z" id="Path" fill="#D8E0EA"></path>
                <path d="M390.825752,211.795207 C394.32832,217.826313 396.335545,224.822018 396.352693,232.297021 C396.395564,254.943248 378.072459,273.334947 355.426232,273.377818 C332.780006,273.420689 314.388307,255.096727 314.345436,232.451357 C314.328287,224.984928 316.310646,217.980648 319.786635,211.949543 C326.850934,199.673834 340.0921,191.396283 355.271896,191.370561 C370.443119,191.344838 383.70915,199.562369 390.825752,211.795207 Z" id="Path" fill="#C1C8D2"></path>
                <path d="M374.526162,53.6411699 L389.287537,109.303283 L293.612117,109.482484 L293.475787,34.3088789 L348.309631,34.2059883 C360.380416,34.1819805 371.032168,42.083123 374.526162,53.6411699 Z" id="Path" fill="#FFFFFF"></path>
                <path d="M6.69046289,164.692736 L6.40837109,14.3463828 C6.39979688,10.5702969 9.4582207,7.50415625 13.2334492,7.50415625 L286.590689,6.98284375 C290.358201,6.98284375 293.424342,10.0326934 293.432916,13.8079219 L293.475787,34.3097363 L293.612117,109.483342 L293.663563,136.818809 L293.809324,211.991557 L204.985563,212.145035 L117.459938,212.307088 C110.344193,200.07425 97.0858789,191.865293 81.9146563,191.891016 C66.7348594,191.916738 53.4936934,200.194289 46.4208203,212.469998 L13.6184316,212.521443 C9.8423457,212.521443 6.77620508,209.471594 6.76763086,205.696365 L6.69046289,164.692736 Z" id="mainColor" fill="#3166C9"></path>
                <path d="M218.687164,239.464211 C218.695738,246.981229 212.5626,253.149521 205.044725,253.158096 L164.041096,253.235264 C156.524078,253.252412 150.355785,247.110699 150.347211,239.592824 L150.330062,232.759172 L150.321488,225.92552 C150.30434,218.408502 156.446053,212.248783 163.963928,212.231635 L204.967557,212.154467 C204.976131,212.154467 204.976131,212.154467 204.984705,212.154467 C212.493148,212.154467 218.644293,218.287605 218.661441,225.796906 L218.670016,232.630559 L218.687164,239.464211 Z" id="Path" fill="#E1EAF8"></path>
                <path d="M117.459937,212.307945 C120.97108,218.330477 122.978305,225.334756 122.995453,232.80976 C123.038324,255.455986 104.714361,273.85626 82.0689922,273.890557 C59.4227656,273.933428 41.0310664,255.609465 40.9881953,232.97267 C40.9710469,225.50624 42.9534062,218.510535 46.4216777,212.470855 C53.4945508,200.195146 66.7357168,191.917596 81.9155137,191.891873 C97.0858789,191.86615 110.344193,200.075107 117.459937,212.307945 Z" id="Path" fill="#C1C8D2"></path>
                <g id="Group" transform="translate(66.021484, 216.927734)" fill="#FFFFFF">
                  <circle id="Oval" cx="289.219545" cy="15.8563027" r="14.5221543"></circle>
                  <circle id="Oval" cx="15.8563027" cy="15.8563027" r="15.3761465"></circle>
                </g>
                <path d="M170.832734,226.316504 C169.149615,226.316504 167.50165,226.999869 166.305547,228.195973 C165.109443,229.383502 164.426078,231.040898 164.426078,232.72316 C164.426078,234.406279 165.109443,236.063676 166.305547,237.250348 C167.50165,238.446451 169.150473,239.129816 170.832734,239.129816 C172.524428,239.129816 174.172393,238.446451 175.368496,237.250348 C176.556025,236.062818 177.239391,234.405422 177.239391,232.72316 C177.239391,231.040041 176.556025,229.383502 175.368496,228.195973 C174.172393,226.999869 172.524428,226.316504 170.832734,226.316504 Z" id="Path" fill="#C1C8D2"></path>
                <g id="Group" transform="translate(4.287109, 157.765625)" fill="#FFFFFF">
                  <path d="M248.429414,12.8716172 C248.433701,12.8716172 248.437988,12.8716172 248.442275,12.8716172 L262.107008,12.8458945 C265.645588,12.8390352 268.50852,9.96581445 268.50166,6.42637695 C268.494801,2.89208398 265.627582,0.0325820313 262.095004,0.0325820313 C262.090717,0.0325820313 262.08643,0.0325820313 262.082143,0.0325820313 L248.41741,0.0583046875 C244.87883,0.0651640625 242.015898,2.93838477 242.022758,6.47782227 C242.029617,10.0104004 244.897693,12.8716172 248.429414,12.8716172 Z" id="Path"></path>
                  <path d="M227.662656,6.45124219 L227.662656,6.45124219 C227.662656,2.91866406 224.798867,0.0557324219 221.267146,0.0557324219 L7.10716992,0.0557324219 C3.5745918,0.0557324219 0.711660156,2.91952148 0.711660156,6.45124219 L0.711660156,6.45124219 C0.711660156,9.98382031 3.57544922,12.846752 7.10716992,12.846752 L221.267146,12.846752 C224.799725,12.8476094 227.662656,9.98296289 227.662656,6.45124219 Z" id="Path"></path>
                </g>
                <path d="M430.524385,225.828631 L430.511523,225.828631 L402.304059,225.881791 C401.941369,223.246934 401.372041,220.676383 400.592645,218.196719 L423.663295,218.15299 C427.201018,218.146131 430.52267,216.763109 433.019482,214.256865 C435.515437,211.751479 436.886455,208.423824 436.879596,204.887816 L436.841012,184.387717 L436.841012,184.385145 L436.841012,184.382572 L436.763844,143.381516 C436.760414,141.759273 436.64209,140.158467 436.417445,138.586813 C436.470605,137.509033 435.668916,134.491766 434.759191,131.924645 C431.86968,123.912895 425.998055,117.188992 418.054898,113.23542 C417.855119,113.135959 417.650195,113.046787 417.440984,112.968762 L394.632705,104.45542 L380.71932,51.9932051 C380.700457,51.9228965 380.680736,51.8534453 380.659301,51.7831367 C376.323318,37.4281797 363.349668,27.7976172 348.361934,27.7976172 L348.29334,27.7976172 L299.865295,27.8885039 L299.838715,13.7933457 C299.831855,10.255623 298.448834,6.9339707 295.94259,4.43801562 C293.443205,1.9480625 290.12584,0.577902344 286.600121,0.577902344 L286.572684,0.577902344 L13.2154434,1.09149805 C5.91535352,1.10607422 -0.01371875,7.05658203 -1.06616105e-14,14.3566719 L0.282949219,164.699596 L0.282949219,164.702168 L0.282949219,164.70474 L0.360117187,205.705797 C0.366976562,209.24352 1.74999805,212.565172 4.25624219,215.061127 C6.75562695,217.55108 10.0729922,218.922098 13.5987109,218.922098 L13.6261484,218.922098 L36.6813652,218.878369 C35.9114004,221.376896 35.3549336,223.948305 35.0068203,226.570301 L6.80707227,226.623461 C3.26849219,226.63032 0.405560547,229.503541 0.412419922,233.042121 C0.419279297,236.577271 3.28649805,239.436773 6.81907617,239.436773 L6.8319375,239.436773 L35.0394023,239.383613 C38.2204375,262.456836 58.0723262,280.298928 81.9909668,280.298928 L82.0818535,280.298928 C94.7451172,280.27492 106.640988,275.321594 115.578754,266.350389 C122.991166,258.909682 127.621244,249.443744 128.976828,239.207842 L143.936268,239.179547 L143.937125,239.606543 C143.957703,250.654424 152.963205,259.642777 164.011943,259.642777 L164.04967,259.642777 L205.053299,259.565609 C210.400182,259.55532 215.433248,257.452922 219.225625,253.647684 C223.017145,249.84073 225.099822,244.799947 225.090391,239.453064 L225.089533,239.026068 L308.395785,238.86916 C311.57682,261.942383 331.427852,279.784475 355.346492,279.784475 L355.437379,279.784475 C379.40575,279.739031 399.230201,261.820629 402.325494,238.692531 L430.532959,238.639371 C434.071539,238.632512 436.934471,235.759291 436.927611,232.220711 C436.924182,228.689848 434.05782,225.828631 430.524385,225.828631 Z M348.320777,40.613502 L348.362791,40.613502 C357.624662,40.613502 365.646701,46.5434316 368.365586,55.3928828 L380.966258,102.912061 L300.010199,103.063824 L299.89359,40.7043887 L348.320777,40.613502 Z M106.503801,257.308018 C99.9813926,263.854434 91.3008535,267.470182 82.0595605,267.48733 L81.9926816,267.48733 C62.9527715,267.48733 47.4334355,251.996289 47.3974238,232.955521 C47.379418,223.714229 50.962584,215.019971 57.4841348,208.472697 C64.006543,201.925424 72.6879395,198.310533 81.9961113,198.293385 C101.036021,198.293385 116.555357,213.784426 116.591369,232.825193 C116.608518,242.067344 113.026209,250.761602 106.503801,257.308018 Z M143.913975,225.940096 L143.914832,226.367092 L128.947676,226.395387 C128.584129,223.760529 128.015658,221.189979 127.236262,218.710314 L145.263557,218.676018 C144.376125,220.965334 143.909687,223.417561 143.913975,225.940096 Z M205.031006,246.754012 L164.027377,246.83118 L164.013658,246.83118 C160.017215,246.83118 156.760727,243.579836 156.75301,239.58425 L156.740148,232.770318 C156.740148,232.770318 156.741006,232.7566 156.741006,232.74974 C156.741006,232.742881 156.740148,232.736021 156.740148,232.736021 L156.727287,225.916088 C156.723857,223.992033 157.480104,222.170869 158.856266,220.789563 C160.229855,219.410828 162.04416,218.647723 163.964785,218.641721 L204.994994,218.564553 C208.99058,218.566268 212.246211,221.815896 212.25307,225.81234 L212.278793,239.480502 C212.28651,243.483805 209.035166,246.746295 205.031006,246.754012 Z M203.682281,205.752955 L163.951066,205.827551 C163.945064,205.827551 163.93992,205.827551 163.933918,205.827551 L122.949152,205.904719 C122.316375,205.905576 121.705891,206.002465 121.128846,206.174807 C112.57692,193.691602 98.2219629,185.480072 81.9961113,185.480072 L81.9052246,185.480072 C69.2411035,185.50408 57.3452324,190.457406 48.4066094,199.428611 C46.2784883,201.565307 44.3861582,203.872629 42.7279043,206.312852 C42.1645781,206.150799 41.5703848,206.058197 40.9538984,206.058197 L40.9410371,206.058197 L13.6038555,206.1105 C13.5789902,206.101068 13.428084,206.111357 13.302043,205.986174 C13.1777168,205.861848 13.1768594,205.727232 13.1768594,205.683504 L13.1116953,171.086531 L13.0876875,158.273219 L12.8175996,14.3343789 C12.8175996,14.0985879 13.0088047,13.9065254 13.2437383,13.905668 L286.600979,13.3920723 C286.639562,13.395502 286.777607,13.3920723 286.902791,13.5163984 C287.027117,13.6407246 287.027975,13.7744824 287.027975,13.8182109 L287.066559,34.3174531 L287.066559,34.3200254 L287.066559,34.3225977 L287.208033,109.492773 L287.208033,109.493631 L287.259479,136.827383 L287.259479,136.829098 L287.259479,136.830812 L287.388092,205.595189 L203.682281,205.752955 Z M308.366633,226.057563 L225.06724,226.214471 L225.066383,225.787475 C225.061238,223.22807 224.569078,220.781846 223.685934,218.528541 L293.819613,218.397355 L310.04032,218.366488 C309.271213,220.865873 308.713889,223.437281 308.366633,226.057563 Z M355.415943,266.973734 L355.349064,266.973734 C336.309154,266.973734 320.789818,251.482693 320.753807,232.441926 C320.735801,223.200633 324.318967,214.506375 330.840518,207.959102 C337.362926,201.411828 346.044322,197.796938 355.352494,197.779789 C374.392404,197.779789 389.91174,213.27083 389.947752,232.311598 C389.983764,251.388377 374.492723,266.937723 355.415943,266.973734 Z M424.038846,190.816666 L424.065426,204.911824 C424.065426,204.95641 424.065426,205.089311 423.9411,205.214494 C423.816773,205.33882 423.683016,205.33882 423.63843,205.33882 L396.302963,205.391123 C395.671043,205.39198 395.060559,205.488869 394.484371,205.660354 C385.932445,193.177148 371.577488,184.966477 355.351637,184.966477 L355.26075,184.966477 C342.596629,184.990484 330.700758,189.943811 321.762135,198.915016 C319.634014,201.051711 317.740826,203.359033 316.082572,205.799256 C315.519246,205.637203 314.925053,205.544602 314.308566,205.544602 L314.295705,205.544602 L300.200547,205.571182 L300.032492,115.876279 L388.137734,115.710797 L412.624846,124.850057 C415.220262,126.18935 417.603037,127.892189 419.224422,130.174646 C423.843354,136.681621 423.933383,142.979385 423.933383,142.979385 C423.936812,143.121717 423.948816,143.263191 423.948816,143.406381 L423.975396,157.501539 L424.038846,190.816666 Z" id="Shape" fill="#434C54"></path>
                <g id="Group" transform="translate(109.750000, 63.449219)" fill="#D8E0EA">
                  <path d="M37.9889336,59.5985371 L37.9889336,59.5985371 C40.4866035,57.1008672 40.4866035,53.0512637 37.9889336,50.5535937 L11.1181895,23.6828496 C8.62051953,21.1851797 4.57091602,21.1851797 2.07324609,23.6828496 L2.07324609,23.6828496 C-0.424423828,26.1805195 -0.424423828,30.230123 2.07324609,32.727793 L28.9439902,59.5985371 C31.4408027,62.096207 35.4912637,62.096207 37.9889336,59.5985371 Z" id="Path"></path>
                  <path d="M28.9096934,59.6062539 L28.9096934,59.6062539 C31.4073633,62.1039238 35.4569668,62.1039238 37.9546367,59.6062539 L85.8210703,11.7398203 C88.3187402,9.24215039 88.3187402,5.19254688 85.8210703,2.69487695 L85.8210703,2.69487695 C83.3234004,0.197207031 79.2737969,0.197207031 76.776127,2.69487695 L28.9096934,50.5613105 C26.4120234,53.0589805 26.4120234,57.108584 28.9096934,59.6062539 Z" id="Path"></path>
                </g>
              </g>
            </g>
          </svg>