<svg id="instagram" xmlns="http://www.w3.org/2000/svg" width="19.952" height="19.956" viewBox="0 0 19.952 19.956">
  <path id="Path_21" data-name="Path 21" d="M20.349,5.867a7.292,7.292,0,0,0-.464-2.421,5.112,5.112,0,0,0-2.92-2.92A7.31,7.31,0,0,0,14.545.062C13.477.012,13.138,0,10.428,0S7.38.012,6.316.059A7.294,7.294,0,0,0,3.895.522a4.869,4.869,0,0,0-1.77,1.154A4.913,4.913,0,0,0,.975,3.442,7.311,7.311,0,0,0,.511,5.863C.46,6.931.449,7.27.449,9.98s.012,3.048.058,4.113a7.291,7.291,0,0,0,.464,2.421,5.111,5.111,0,0,0,2.92,2.92,7.311,7.311,0,0,0,2.421.464c1.064.047,1.4.058,4.113.058s3.048-.012,4.113-.058a7.29,7.29,0,0,0,2.421-.464,5.1,5.1,0,0,0,2.92-2.92,7.316,7.316,0,0,0,.464-2.421c.047-1.064.058-1.4.058-4.113s0-3.048-.051-4.113Zm-1.8,8.147a5.47,5.47,0,0,1-.343,1.852,3.31,3.31,0,0,1-1.895,1.895,5.489,5.489,0,0,1-1.852.343c-1.053.047-1.368.058-4.031.058S7.45,18.151,6.4,18.1a5.467,5.467,0,0,1-1.852-.343A3.071,3.071,0,0,1,3.4,17.016a3.1,3.1,0,0,1-.745-1.146,5.49,5.49,0,0,1-.343-1.852c-.047-1.053-.058-1.368-.058-4.031s.012-2.982.058-4.031a5.467,5.467,0,0,1,.343-1.852,3.033,3.033,0,0,1,.749-1.146,3.1,3.1,0,0,1,1.146-.744,5.493,5.493,0,0,1,1.852-.343c1.053-.047,1.368-.058,4.031-.058s2.982.012,4.031.058a5.47,5.47,0,0,1,1.852.343,3.068,3.068,0,0,1,1.146.744,3.1,3.1,0,0,1,.745,1.146,5.492,5.492,0,0,1,.343,1.852c.047,1.053.058,1.368.058,4.031s-.012,2.974-.058,4.027Zm0,0" transform="translate(-0.449 0)" fill="#fff"/>
  <path id="Path_22" data-name="Path 22" d="M130.075,124.5a5.126,5.126,0,1,0,5.126,5.126A5.128,5.128,0,0,0,130.075,124.5Zm0,8.452a3.325,3.325,0,1,1,3.325-3.325A3.326,3.326,0,0,1,130.075,132.952Zm0,0" transform="translate(-120.096 -119.647)" fill="#fff"/>
  <path id="Path_23" data-name="Path 23" d="M364.843,89.8a1.2,1.2,0,1,1-1.2-1.2A1.2,1.2,0,0,1,364.843,89.8Zm0,0" transform="translate(-348.338 -85.148)" fill="#fff"/>
</svg>
