<svg xmlns="http://www.w3.org/2000/svg" width="19.88" height="16.539" viewBox="0 0 19.88 16.539">
  <g id="right-arrow" transform="translate(0 -41.346)">
    <g id="Group_64" data-name="Group 64" transform="translate(0 41.346)">
      <path id="Path_86" data-name="Path 86" d="M19.563,48.843l-7.179-7.18a1.091,1.091,0,0,0-1.539,0l-.652.652a1.08,1.08,0,0,0-.318.769,1.1,1.1,0,0,0,.318.778l4.188,4.2H1.074A1.062,1.062,0,0,0,0,49.131v.922A1.1,1.1,0,0,0,1.074,51.17H14.428l-4.236,4.221a1.078,1.078,0,0,0,0,1.528l.652.65a1.091,1.091,0,0,0,1.539,0l7.179-7.179a1.1,1.1,0,0,0,0-1.544Z" transform="translate(0 -41.346)" fill="#3166c9"/>
    </g>
  </g>
</svg>
