<svg id="salary" xmlns="http://www.w3.org/2000/svg" width="21.803" height="22.488" viewBox="0 0 21.803 22.488">
  <g id="Group_26" data-name="Group 26" transform="translate(0.329 0.332)">
    <g id="Group_10" data-name="Group 10" transform="translate(4.356)">
      <g id="Group_9" data-name="Group 9">
        <g id="Group_8" data-name="Group 8">
          <g id="Group_5" data-name="Group 5">
            <g id="Group_4" data-name="Group 4">
              <path id="Path_17" data-name="Path 17" d="M123.228,11.4s2.155-2.8,1.535-3.6c-.211-.273-.391.1-.828.1-.513,0-.513-.336-1.026-.336s-.513.336-1.026.336-.513-.336-1.026-.336-.513.336-1.026.336c-.437,0-.617-.376-.829-.1-.62.8,1.5,3.6,1.5,3.6-9.378,6.165-6.354,14.549-.817,14.549h4.391C129.632,25.945,132.637,17.581,123.228,11.4Z" transform="translate(-114.473 -7.559)" fill="#3166c9"/>
            </g>
          </g>
          <g id="Group_6" data-name="Group 6" transform="translate(5.664)">
            <path id="Path_18" data-name="Path 18" d="M246.507,11.4s2.155-2.8,1.535-3.6c-.211-.273-.391.1-.828.1-.513,0-.513-.336-1.026-.336s-.513.336-1.026.336c-.025,0-.048,0-.071,0a11.092,11.092,0,0,1-1.667,3c.209.307.36.506.36.506q-.188.123-.368.248c8.96,6.158,5.962,14.3.482,14.3h3.46C252.91,25.945,255.915,17.581,246.507,11.4Z" transform="translate(-243.415 -7.559)" fill="#3166c9"/>
          </g>
          <g id="Group_7" data-name="Group 7" transform="translate(4.841 3.258)">
            <path id="Path_19" data-name="Path 19" d="M229,83.311a7.5,7.5,0,0,1-3.741,0,.8.8,0,0,1-.526-1.046l.005-.015a.737.737,0,0,1,.87-.491,6.091,6.091,0,0,0,3.043,0,.737.737,0,0,1,.87.491l.005.015A.8.8,0,0,1,229,83.311Z" transform="translate(-224.683 -81.738)" fill="#3166c9"/>
          </g>
        </g>
      </g>
    </g>
    <g id="Group_25" data-name="Group 25" transform="translate(0 12.477)">
      <g id="Group_24" data-name="Group 24">
        <g id="Group_23" data-name="Group 23">
          <g id="Group_22" data-name="Group 22">
            <g id="Group_21" data-name="Group 21">
              <g id="Group_20" data-name="Group 20">
                <g id="Group_19" data-name="Group 19">
                  <g id="Group_18" data-name="Group 18">
                    <g id="Group_17" data-name="Group 17">
                      <g id="Group_16" data-name="Group 16">
                        <g id="Group_15" data-name="Group 15" transform="translate(1.739 1.154)">
                          <g id="Group_14" data-name="Group 14">
                            <g id="Group_11" data-name="Group 11">
                              <path id="Path_20" data-name="Path 20" d="M54.883,324.089l4.769,1.775a3.628,3.628,0,0,0,1.266.228h4.914a3.628,3.628,0,0,0,1.942-.564l6.153-3.9a1.08,1.08,0,0,0,.176-1.415,1.1,1.1,0,0,0-1.5-.289l-5.991,2.638.007-.972a1.74,1.74,0,0,0-1.487-1.55l-3.648-.42a4.813,4.813,0,0,1-2-.83,6.539,6.539,0,0,0-3.3-.895H54.883Z" transform="translate(-54.883 -317.896)" fill="#ffddce"/>
                            </g>
                            <g id="Group_12" data-name="Group 12">
                              <path id="Path_21" data-name="Path 21" d="M54.883,324.089l4.769,1.775a3.628,3.628,0,0,0,1.266.228h4.914a3.628,3.628,0,0,0,1.942-.564l6.153-3.9a1.08,1.08,0,0,0,.176-1.415,1.1,1.1,0,0,0-1.5-.289l-5.991,2.638.007-.972a1.74,1.74,0,0,0-1.487-1.55l-3.648-.42a4.813,4.813,0,0,1-2-.83,6.539,6.539,0,0,0-3.3-.895H54.883Z" transform="translate(-54.883 -317.896)" fill="#ffddce"/>
                            </g>
                            <path id="Path_22" data-name="Path 22" d="M74.1,360.814a1.1,1.1,0,0,0-1.5-.289l-1.648.726.143.227a1.08,1.08,0,0,1-.176,1.415l-3.585,2.272a3.628,3.628,0,0,1-1.51.33H60.918a3.629,3.629,0,0,1-1.266-.228l-4.769-1.775v1.2l4.769,1.775a3.628,3.628,0,0,0,1.266.228h4.914a3.629,3.629,0,0,0,1.942-.563l6.153-3.9A1.08,1.08,0,0,0,74.1,360.814Z" transform="translate(-54.884 -358.495)" fill="#ffcbbe"/>
                            <g id="Group_13" data-name="Group 13" transform="translate(11.293 2.694)">
                              <path id="Path_23" data-name="Path 23" d="M312,379.236v.023l.015-.007Z" transform="translate(-312.004 -379.236)" fill="#f5dbcc"/>
                            </g>
                          </g>
                        </g>
                        <path id="Path_24" data-name="Path 24" d="M18.06,299.917a.626.626,0,0,1-.626.626H15.921a.626.626,0,0,1-.626-.626v-7.671a.627.627,0,0,1,.626-.626h1.512a.627.627,0,0,1,.626.626Z" transform="translate(-15.295 -291.62)" fill="#3166c9"/>
                      </g>
                    </g>
                  </g>
                </g>
              </g>
            </g>
          </g>
        </g>
      </g>
    </g>
  </g>
  <g id="Group_27" data-name="Group 27" transform="translate(0 0)">
    <path id="Path_25" data-name="Path 25" d="M29.357,16.1a1.414,1.414,0,0,0-1.9-.4l-.41.18a6.775,6.775,0,0,0,.4-4.362A10.523,10.523,0,0,0,24.8,6.716a.329.329,0,0,0-.486.445,9.877,9.877,0,0,1,2.494,4.492,5.906,5.906,0,0,1-.773,4.665l-4.1,1.805,0-.463a.322.322,0,0,0,0-.035,2.064,2.064,0,0,0-1.769-1.844h-.008l-3.644-.42c-1.4-.2-1.762-1.039-3.66-1.518a7.091,7.091,0,0,1,.523-3.485,12.55,12.55,0,0,1,4.089-5.038c.729.517,3.983.581,4.711-.086.373.283.729.575,1.061.871a.329.329,0,1,0,.438-.492c-.364-.324-.755-.643-1.165-.952a1.172,1.172,0,0,0-.393-1.168C23.148,1.928,23.448.9,23.034.367a.576.576,0,0,0-.79-.122.528.528,0,0,1-.632-.023,1.184,1.184,0,0,0-1.387,0,.531.531,0,0,1-.665,0,1.184,1.184,0,0,0-1.387,0,.524.524,0,0,1-.631.021.575.575,0,0,0-.791.118c-.405.521-.134,1.513.828,3.024a1.073,1.073,0,0,0-.167.112A2.224,2.224,0,0,0,15.5,2.774a2.414,2.414,0,0,1-1.639-.387.329.329,0,0,0-.367.547,3.067,3.067,0,0,0,2.079.495,1.609,1.609,0,0,1,1.471.643q-.006.021-.011.042a5.652,5.652,0,0,0-1.044.114A3.093,3.093,0,0,0,13.841,5.6a.329.329,0,1,0,.569.333,3.152,3.152,0,0,1,2.649-1.16l.008.022a13.014,13.014,0,0,0-4.3,5.316,7.817,7.817,0,0,0-.588,3.6,6.854,6.854,0,0,0-.956-.074v-.2a.957.957,0,0,0-.956-.956H8.753a.957.957,0,0,0-.956.956V21.1a.957.957,0,0,0,.956.956h1.512a.957.957,0,0,0,.956-.956v-.094l3.3,1.228a3.946,3.946,0,0,0,1.381.249h4.914a3.952,3.952,0,0,0,2.119-.615c6.556-4.156,6.158-3.9,6.2-3.931a1.412,1.412,0,0,0,.229-1.847Zm-7.8-11.252a7.139,7.139,0,0,1-3.58,0c-.517-.131-.367-1.053.188-.913a6.423,6.423,0,0,0,3.2,0C21.915,3.793,22.083,4.711,21.558,4.843ZM17.241.83l.008,0a1.169,1.169,0,0,0,1.285-.06c.561-.367.622.222,1.359.222a1.144,1.144,0,0,0,.693-.222.531.531,0,0,1,.666,0,1.175,1.175,0,0,0,1.29.059c.068.244-.086.973-1.062,2.427a6.709,6.709,0,0,1-3.181.025C17.324,1.812,17.173,1.077,17.241.83Zm11.468,16.6L22.58,21.316a3.294,3.294,0,0,1-1.766.512H15.9a3.289,3.289,0,0,1-1.151-.207l-3.528-1.313V16.761a.329.329,0,1,0-.659,0v4.344a.3.3,0,0,1-.3.3H8.753a.3.3,0,0,1-.3-.3V13.434a.3.3,0,0,1,.3-.3h1.512a.3.3,0,0,1,.3.3v1.787a.329.329,0,1,0,.659,0v-.929c2.725.021,3.337,1.457,5.2,1.721h.008l3.644.42a1.407,1.407,0,0,1,1.2,1.24l0,.627h-3.4a.329.329,0,1,0,0,.659H21.6a.341.341,0,0,0,.131-.027l5.992-2.638c.431-.192.824-.219,1.09.173A.752.752,0,0,1,28.709,17.433Z" transform="translate(-7.797 0.001)" fill="#fff"/>
    <path id="Path_26" data-name="Path 26" d="M241.745,163.453a.329.329,0,0,0,.329-.329v-.546a1.93,1.93,0,0,0,1.581-1.6,1.689,1.689,0,0,0-1.164-1.932c-.151-.053-.29-.1-.418-.154v-2.1a1.355,1.355,0,0,1,.641.281.329.329,0,0,0,.445-.486,2.041,2.041,0,0,0-1.085-.461v-.468a.329.329,0,1,0-.659,0v.5a2.421,2.421,0,0,0-.244.06,1.593,1.593,0,0,0-1.09,1.25,1.393,1.393,0,0,0,.453,1.373,3.99,3.99,0,0,0,.882.5v2.6a1.75,1.75,0,0,1-1.024-.355.329.329,0,0,0-.361.551,2.412,2.412,0,0,0,1.385.462v.523A.329.329,0,0,0,241.745,163.453Zm-.8-5.132a.742.742,0,0,1-.212-.733.942.942,0,0,1,.633-.741l.054-.015v1.779A2.78,2.78,0,0,1,240.941,158.321Zm1.332,1.349a1.037,1.037,0,0,1,.734,1.2,1.283,1.283,0,0,1-.932,1.033V159.6Z" transform="translate(-229.688 -148.509)" fill="#fff"/>
  </g>
</svg>
