<svg width="100px" height="100px" viewBox="0 0 439 439" version="1.1" xmlns="http://www.w3.org/2000/svg" xmlns:xlink="http://www.w3.org/1999/xlink">
            <!-- Generator: Sketch 53.2 (72643) - https://sketchapp.com -->
            <title>Artboard</title>
            <desc>Created with Sketch.</desc>
            <g id="Artboard" stroke="none" stroke-width="1" fill="none" fill-rule="evenodd">
              <g id="bank" transform="translate(46.000000, 0.000000)" fill-rule="nonzero">
                <polygon id="Path" fill="#FFFFFF" points="16.7699663 25.3843767 329.229904 25.3843767 329.229904 432.569336 16.7699663 432.569336"></polygon>
                <polygon id="Path" fill="#E4EAF8" points="16.7699663 25.3843767 33.9217529 25.3843767 33.9217529 432.569336 16.7699663 432.569336"></polygon>
                <polygon id="Path" fill="#D8E0EA" points="241.377655 408.367264 329.229904 408.367264 329.229904 432.569336 241.377655 432.569336"></polygon>
                <polygon id="Path" fill="#D8E0EA" points="16.7699663 408.367264 105.717438 408.367264 105.717438 432.569336 16.7699663 432.569336"></polygon>
                <polygon id="Path" fill="#D8E0EA" points="16.7699663 408.367264 33.9217529 408.367264 33.9217529 432.569336 16.7699663 432.569336"></polygon>
                <path d="M268.607499,183.407898 L77.3923723,183.407898 C72.3449707,183.407898 68.2521205,187.500748 68.2521205,192.548149 L68.2521205,243.286759 C68.2521205,248.33416 72.3449707,252.42701 77.3923723,252.42701 L268.607499,252.42701 C273.654899,252.42701 277.74775,248.33416 277.74775,243.286759 L277.74775,192.548149 C277.74775,187.500748 273.654899,183.407898 268.607499,183.407898 L268.607499,183.407898 Z" id="lightColor" fill="#3166C9"></path>
                <path d="M85.400558,243.286759 L85.400558,192.548149 C85.400558,187.500748 89.4934082,183.407898 94.5408098,183.407898 L77.3923723,183.407898 C72.3449707,183.407898 68.2521205,187.500748 68.2521205,192.548149 L68.2521205,243.286759 C68.2521205,248.33416 72.3449707,252.42701 77.3923723,252.42701 L94.5408098,252.42701 C89.4934082,252.42701 85.400558,248.33416 85.400558,243.286759 L85.400558,243.286759 Z" id="darkColor" fill="#3166C9"></path>
                <path d="M241.01593,301.370392 L104.98394,301.370392 C101.999711,301.370392 99.5848615,303.78524 99.5848615,306.76947 L99.5848615,432.569336 L246.415009,432.569336 L246.415009,306.76947 C246.415009,303.78524 244.00016,301.370392 241.01593,301.370392 Z" id="mainColor" fill="#3166C9"></path>
                <path d="M173.00161,301.370392 L104.98394,301.370392 C101.999711,301.370392 99.5848615,303.78524 99.5848615,306.76947 L99.5848615,432.569336 L173.00161,432.569336 L173.00161,301.370392 Z" id="mainColor" fill="#3166C9"></path>
                <path d="M122.132377,301.370392 L104.98394,301.370392 C101.999711,301.370392 99.5848615,303.78524 99.5848615,306.76947 L99.5848615,432.569336 L116.733299,432.569336 L116.733299,306.76947 C116.733299,303.78524 119.151497,301.370392 122.132377,301.370392 Z" id="darkColor" fill="#3166C9"></path>
                <polygon id="Path" fill="#D8E0EA" points="85.7287903 54.4797817 129.363525 54.4797817 129.363525 103.460006 85.7287903 103.460006"></polygon>
                <polygon id="mainColor" fill="#3166C9" points="129.363525 54.4797817 173.00161 54.4797817 173.00161 103.460006 129.363525 103.460006"></polygon>
                <path d="M85.7287903,54.4797817 L44.8873744,54.4797817 C43.3433454,54.4797817 42.0907061,55.7324219 42.0907061,57.2731018 L42.0907061,100.666687 C42.0907061,102.210716 43.3433454,103.460006 44.8873744,103.460006 L85.7287903,103.460006 L85.7287903,54.4797817 Z" id="mainColor" fill="#3166C9"></path>
                <polygon id="mainColor" fill="#3166C9" points="260.27108 103.463356 216.636345 103.463356 216.636345 54.4797817 260.27108 54.4797817"></polygon>
                <g id="Group" transform="translate(6.001953, 6.001953)">
                  <polygon id="Path" fill="#D8E0EA" points="166.999656 48.4778286 210.634392 48.4778286 210.634392 97.4580532 166.999656 97.4580532"></polygon>
                  <path d="M254.269127,48.4778286 L295.110543,48.4778286 C296.654572,48.4778286 297.907211,49.7304688 297.907211,51.2711487 L297.907211,94.6647339 C297.907211,96.2087629 296.654572,97.4580532 295.110543,97.4580532 L254.269127,97.4580532 L254.269127,48.4778286 Z" id="Path" fill="#D8E0EA"></path>
                  <path d="M328.630379,123.170662 L5.3655849,123.170662 C2.73638132,123.170662 0.606223846,125.30082 0.606223846,127.930023 L0.606223846,142.613373 C0.606223846,145.242576 2.73638132,147.372734 5.3655849,147.372734 L328.630379,147.372734 C331.259583,147.372734 333.38974,145.242576 333.38974,142.613373 L333.38974,127.930023 C333.38974,125.30082 331.259583,123.170662 328.630379,123.170662 Z" id="Path" fill="#ABFFDB"></path>
                  <path d="M328.630379,0.428710938 L5.3655849,0.428710938 C2.73638132,0.428710938 0.606223846,2.55886841 0.606223846,5.18807199 L0.606223846,19.8714216 C0.606223846,22.500626 2.73638132,24.6307827 5.3655849,24.6307827 L328.630379,24.6307827 C331.259583,24.6307827 333.38974,22.500626 333.38974,19.8714216 L333.38974,5.18807199 C333.38974,2.55886841 331.259583,0.428710938 328.630379,0.428710938 Z" id="Path" fill="#D8E0EA"></path>
                </g>
                <path d="M334.632332,136.56453 L11.367538,136.56453 C9.10340924,136.56453 7.21440082,134.983658 6.73210101,132.870247 C6.65171771,133.211876 6.60817697,133.566902 6.60817697,133.931976 L6.60817697,148.615326 C6.60817697,151.24453 8.73833444,153.374687 11.367538,153.374687 L334.635681,153.374687 C337.261536,153.374687 339.395042,151.24453 339.395042,148.615326 L339.395042,133.931976 C339.395042,133.566902 339.348152,133.211876 339.271118,132.870247 C338.785469,134.983658 336.896462,136.56453 334.632332,136.56453 Z" id="Path" fill="#D8E0EA"></path>
                <path d="M334.632332,13.8225786 L11.367538,13.8225786 C9.10340924,13.8225786 7.21440082,12.2417071 6.73210101,10.1282959 C6.65171771,10.4699254 6.60817697,10.8249512 6.60817697,11.1900251 L6.60817697,25.8733747 C6.60817697,28.5025792 8.73833444,30.6327358 11.367538,30.6327358 L334.635681,30.6327358 C337.261536,30.6327358 339.395042,28.5025792 339.395042,25.8733747 L339.395042,11.1900251 C339.395042,10.8249512 339.348152,10.4699254 339.271118,10.1282959 C338.785469,12.2417071 336.896462,13.8225786 334.632332,13.8225786 Z" id="mainColor" fill="#3166C9"></path>
                <path d="M193.244804,382.892456 C189.694542,382.892456 186.81414,380.012054 186.81414,376.461792 L186.81414,354.463562 C186.81414,350.9133 189.694542,348.032898 193.244804,348.032898 C196.798417,348.032898 199.675468,350.9133 199.675468,354.463562 L199.675468,376.461792 C199.675468,380.012054 196.798417,382.892456 193.244804,382.892456 Z" id="Path" fill="#FFFFFF"></path>
                <path d="M152.403389,382.892456 C148.849777,382.892456 145.972725,380.012054 145.972725,376.461792 L145.972725,354.463562 C145.972725,350.9133 148.849777,348.032898 152.403389,348.032898 C155.957001,348.032898 158.834053,350.9133 158.834053,354.463562 L158.834053,376.461792 C158.834053,380.012054 155.953652,382.892456 152.403389,382.892456 Z" id="Path" fill="#FFFFFF"></path>
                <path d="M77.2148594,176.977234 C68.6305926,176.977234 61.6472935,183.963883 61.6472935,192.548149 L61.6472935,243.286759 C61.6472935,251.871025 68.6305926,258.854325 77.2148594,258.854325 L268.433334,258.854325 C277.017601,258.854325 284.00425,251.871025 284.00425,243.286759 L284.00425,192.548149 C284.00425,183.960533 277.017601,176.977234 268.433334,176.977234 L77.2148594,176.977234 Z M271.142922,192.548149 L271.142922,243.286759 C271.142922,244.777199 269.927124,245.992997 268.433334,245.992997 L77.2148594,245.992997 C75.7244184,245.992997 74.5086216,244.777199 74.5086216,243.286759 L74.5086216,192.548149 C74.5086216,191.05436 75.7244184,189.838562 77.2148594,189.838562 L268.433334,189.838562 C269.927124,189.838562 271.142922,191.05436 271.142922,192.548149 Z" id="Shape" fill="#474D54"></path>
                <path d="M44.7098615,109.89067 L300.938332,109.89067 C306.025924,109.89067 310.162315,105.75428 310.162315,100.666687 L310.162315,57.2731018 C310.162315,52.1855085 306.025924,48.0491176 300.938332,48.0491176 L44.7098615,48.0491176 C39.6222691,48.0491176 35.4858782,52.1855085 35.4858782,57.2731018 L35.4858782,100.666687 C35.4858782,105.75428 39.6222691,109.89067 44.7098615,109.89067 Z M48.3472063,60.9104457 L297.300987,60.9104457 L297.300987,97.0293422 L48.3472063,97.0293422 L48.3472063,60.9104457 Z" id="Shape" fill="#474D54"></path>
                <path d="M345.648193,25.8733747 L345.648193,11.1900251 C345.648193,5.02060721 340.627586,0 334.458168,0 L187.828979,0 C184.278717,0 181.398315,2.88040161 181.398315,6.43066406 C181.398315,9.9842756 184.278717,12.8613281 187.828979,12.8613281 L332.786865,12.8613281 L332.786865,24.2020717 L12.8613281,24.2020717 L12.8613281,12.8613281 L157.819214,12.8613281 C161.369476,12.8613281 164.249878,9.9842756 164.249878,6.43066406 C164.249878,2.88040161 161.369476,1.52308721e-15 157.819214,1.52308721e-15 L11.1900251,1.52308721e-15 C5.02060721,1.52308721e-15 7.61543606e-16,5.02060721 7.61543606e-16,11.1900251 L7.61543606e-16,25.8733747 C7.61543606e-16,31.6978149 4.47132132,36.4973676 10.1651385,37.01651 L10.1651385,122.788841 C4.47467041,123.307983 7.61543606e-16,128.107536 7.61543606e-16,133.931976 L7.61543606e-16,148.615326 C7.61543606e-16,154.439766 4.47132132,159.239319 10.1651385,159.758461 L10.1651385,426.138672 L6.43066406,426.138672 C2.87705252,426.138672 0,429.015724 0,432.569336 C0,436.122947 2.87705252,439 6.43066406,439 L339.217529,439 C342.771141,439 345.648193,436.122947 345.648193,432.569336 C345.648193,429.015724 342.771141,426.138672 339.217529,426.138672 L335.483055,426.138672 L335.483055,289.413375 C335.483055,285.863114 332.606002,282.982711 329.052391,282.982711 C325.498779,282.982711 322.621727,285.863114 322.621727,289.413375 L322.621727,426.138672 L252.671509,426.138672 L252.671509,306.76947 C252.671509,300.245026 247.362862,294.939728 240.841766,294.939728 L104.806427,294.939728 C98.2853315,294.939728 92.9766846,300.245026 92.9766846,306.76947 L92.9766846,426.138672 L23.0264666,426.138672 L23.0264666,159.805351 L322.621727,159.805351 L322.621727,259.400261 C322.621727,262.953873 325.498779,265.834274 329.052391,265.834274 C332.606002,265.834274 335.483055,262.953873 335.483055,259.400261 L335.483055,159.758461 C341.173523,159.239319 345.648193,154.439766 345.648193,148.615326 L345.648193,133.931976 C345.648193,128.107536 341.176872,123.307983 335.483055,122.788841 L335.483055,37.01651 C341.176872,36.4973676 345.648193,31.6978149 345.648193,25.8733747 Z M239.806832,426.138672 L179.254761,426.138672 L179.254761,307.801056 L239.806832,307.801056 L239.806832,426.138672 Z M105.841362,307.801056 L166.393433,307.801056 L166.393433,426.138672 L105.841362,426.138672 L105.841362,307.801056 Z M322.621727,37.0667498 L322.621727,122.741951 L23.0264666,122.741951 L23.0264666,37.0667498 L322.621727,37.0667498 Z M12.8613281,146.944023 L12.8613281,135.603279 L332.786865,135.603279 L332.786865,146.944023 L12.8613281,146.944023 Z" id="Shape" fill="#474D54"></path>
              </g>
              <text id="darkColor" font-family="SourceSansPro-Black, Source Sans Pro" font-size="50" font-weight="700" fill="#FFFFFF">
                <tspan x="176" y="237">SBA</tspan>
              </text>
            </g>
          </svg>