<svg width="100px" height="100px" viewBox="0 0 439 439" version="1.1" xmlns="http://www.w3.org/2000/svg" xmlns:xlink="http://www.w3.org/1999/xlink">
            <!-- Generator: Sketch 53.2 (72643) - https://sketchapp.com -->
            <title>Artboard</title>
            <desc>Created with Sketch.</desc>
            <g id="Artboard" stroke="none" stroke-width="1" fill="none" fill-rule="evenodd">
              <g id="003-money-bag" transform="translate(46.000000, 0.000000)" fill-rule="nonzero">
                <path d="M349.643913,353.227669 C349.643913,197.632393 205.459717,97.4111633 205.459717,97.4111633 C205.459717,97.4111633 210.265969,57.4204712 237.137435,31.949013 C245.490601,24.0279088 244.063797,11.7359619 224.617737,9.34790823 C215.701889,8.25268555 207.090828,14.2043989 201.611366,14.2043989 C188.304581,14.2043989 189.178749,6.43736224 178.045662,6.43066406 C178.042313,6.43066406 178.042313,6.43066406 178.038963,6.43066406 C178.035614,6.43066406 178.032265,6.43066406 178.032265,6.43066406 C166.899178,6.43736224 167.769997,14.2043989 154.463211,14.2043989 C148.983749,14.2043989 140.372689,8.25268555 131.460189,9.34790823 C112.01413,11.7359619 110.583977,24.0279088 118.940491,31.949013 C145.811959,57.4204712 150.61486,97.4111633 150.61486,97.4111633 C150.61486,97.4111633 6.43066406,197.629044 6.43066406,353.227669 C6.43066406,414.667305 81.9809187,428.406151 162.190056,432.194214 L162.032638,432.194214 C162.421158,432.21431 162.806328,432.227706 163.194847,432.244454 C163.847961,432.271248 164.497726,432.298043 165.150841,432.324837 C165.911133,432.351631 166.668075,432.378426 167.431717,432.40522 C168.101578,432.425316 168.771439,432.445412 169.4413,432.462158 C170.184845,432.478905 170.92839,432.495651 171.671936,432.512398 C172.361893,432.522445 173.0485,432.535843 173.738457,432.542542 C174.461906,432.55259 175.188705,432.559288 175.915505,432.562638 C176.622208,432.569336 177.328911,432.572685 178.035614,432.572685 C178.745667,432.572685 179.45237,432.569336 180.159073,432.562638 C180.885872,432.559288 181.609322,432.55259 182.336121,432.542542 C183.026078,432.535843 183.712685,432.522445 184.402641,432.512398 C185.146187,432.495651 185.889732,432.478905 186.633278,432.462158 C187.303139,432.445412 187.973,432.425316 188.642861,432.40522 C189.406502,432.378426 190.163444,432.351631 190.923737,432.324837 C191.576851,432.298043 192.229965,432.271248 192.87973,432.244454 C193.26825,432.227706 193.65342,432.21431 194.03859,432.194214 L193.884521,432.194214 C274.093658,428.406151 349.643913,414.667305 349.643913,353.227669 Z" id="mainColor" fill="#3166C9"></path>
                <path d="M349.643913,353.227669 C349.643913,197.629044 205.459717,97.4111633 205.459717,97.4111633 C205.459717,97.4111633 210.265969,57.4204712 237.137435,31.949013 C245.490601,24.0279088 244.063797,11.7359619 224.617737,9.34790823 C218.843536,8.63785574 213.199959,10.8818891 208.447296,12.5531921 C201.313278,20.7355425 194.249595,31.1987688 187.798836,41.960083 C170.462837,70.881325 175.319328,107.988266 199.390778,131.600861 C242.064262,173.460465 303.681412,251.51265 303.681412,353.227669 C303.681412,412.838585 232.552238,427.54538 155.056038,431.82914 C157.430695,431.959762 159.8087,432.080338 162.193405,432.194214 L162.035988,432.194214 C162.421158,432.21431 162.809677,432.224357 163.194847,432.241105 C163.847961,432.271248 164.501076,432.298043 165.15419,432.324837 C165.911133,432.351631 166.671425,432.378426 167.431717,432.401871 C168.101578,432.425316 168.771439,432.442062 169.444649,432.458809 C170.188194,432.478905 170.92839,432.495651 171.671936,432.509049 C172.361893,432.522445 173.051849,432.535843 173.738457,432.542542 C174.465255,432.55259 175.192055,432.559288 175.918854,432.562638 C176.625557,432.565987 177.33226,432.569336 178.038963,432.569336 C178.745667,432.569336 179.45237,432.565987 180.159073,432.562638 C180.885872,432.559288 181.612671,432.55259 182.33947,432.542542 C183.026078,432.535843 183.716034,432.522445 184.40599,432.509049 C185.146187,432.495651 185.889732,432.478905 186.633278,432.458809 C187.306488,432.442062 187.976349,432.425316 188.64621,432.401871 C189.406502,432.378426 190.166793,432.351631 190.923737,432.324837 C191.576851,432.298043 192.229965,432.271248 192.883079,432.241105 C193.26825,432.224357 193.656769,432.21431 194.041939,432.194214 L193.884521,432.194214 C274.093658,428.406151 349.643913,414.667305 349.643913,353.227669 L349.643913,353.227669 Z" id="Path" fill="#E2EBF9"></path>
                <path d="M223.602897,112.764374 C192.893127,118.210343 163.191498,118.210343 132.485077,112.764374 C124.108467,111.079674 117.681152,103.312638 119.895042,94.611145 C122.269699,86.7938686 130.318077,82.3058018 138.242531,83.7794957 C165.100602,88.4886169 190.984024,88.4886169 217.845443,83.7794957 C225.773247,82.3058018 233.818276,86.7938686 236.192932,94.611145 C238.406822,103.312638 231.976158,111.079674 223.602897,112.764374 L223.602897,112.764374 Z" id="Path" fill="#765147"></path>
                <path d="M223.602897,112.764374 C192.893127,118.210343 163.191498,118.210343 132.485077,112.764374 C124.108467,111.079674 117.681152,103.312638 119.895042,94.611145 C122.269699,86.7938686 130.318077,82.3058018 138.242531,83.7794957 C165.100602,88.4886169 190.984024,88.4886169 217.845443,83.7794957 C225.773247,82.3058018 233.818276,86.7938686 236.192932,94.611145 C238.406822,103.312638 231.976158,111.079674 223.602897,112.764374 L223.602897,112.764374 Z" id="mainColor" fill="#3166C9"></path>
                <path d="M255.361,272.415657 C255.361,315.119285 220.745941,349.734344 178.045662,349.734344 C135.342033,349.734344 100.726974,315.119285 100.726974,272.415657 C100.726974,229.715377 135.342033,195.100319 178.045662,195.100319 C220.745941,195.100319 255.361,229.715377 255.361,272.415657 L255.361,272.415657 Z" id="Path" fill="#FFFFFF"></path>
                <path d="M178.045662,195.100319 C169.759483,195.100319 161.78479,196.406547 154.302445,198.821395 C185.387337,208.839165 207.877914,237.998207 207.877914,272.419006 C207.877914,306.836456 185.387337,335.995499 154.302445,346.016617 C161.78479,348.428116 169.759483,349.734344 178.045662,349.734344 C220.745941,349.734344 255.361,315.119285 255.361,272.419006 C255.361,229.715377 220.745941,195.100319 178.045662,195.100319 L178.045662,195.100319 Z" id="Path" fill="#E2EBF9"></path>
                <path d="M176.937042,304.254143 C164.638397,303.949357 155.387619,297.344528 155.387619,291.650711 C155.387619,288.803802 157.929741,284.536789 161.081437,284.536789 C164.943184,284.536789 167.9944,291.141617 176.937042,292.159806 L176.937042,271.933357 C167.689614,268.476876 157.219688,264.511299 157.219688,251.502602 C157.219688,238.594383 166.775253,233.004395 176.937042,231.681419 L176.937042,228.834511 C176.937042,227.514885 178.460976,226.295738 180.393524,226.295738 C182.121765,226.295738 183.850006,227.514885 183.850006,228.834511 L183.850006,231.477112 C190.454834,231.681419 201.229545,233.613968 201.229545,239.508744 C201.229545,241.846558 199.605133,246.522186 195.843864,246.522186 C192.996956,246.522186 190.659141,243.270012 183.850006,242.760917 L183.850006,260.649552 C192.896477,264.002205 203.061615,268.577354 203.061615,282.399933 C203.061615,294.902885 195.234291,302.120636 183.850006,303.949357 L183.850006,307.101052 C183.850006,308.424027 182.121765,309.643173 180.393524,309.643173 C178.464325,309.643173 176.940391,308.424027 176.940391,307.101052 L176.940391,304.254143 L176.937042,304.254143 Z M177.750923,258.415566 L177.750923,243.065704 C172.670028,243.879585 169.618813,246.317879 169.618813,250.179626 C169.618813,254.654297 173.075295,256.583496 177.750923,258.415566 Z M183.036125,274.371651 L183.036125,292.055977 C187.510795,291.141617 190.659141,288.499016 190.659141,283.722908 C190.659141,278.742493 187.406967,276.304199 183.036125,274.371651 Z" id="darkColor" fill="#3166C9"></path>
                <path d="M168.007797,93.5159223 C164.909691,93.5159223 162.180008,91.2718889 161.667564,88.116844 L158.549362,68.9387285 C157.976631,65.4320068 160.357987,62.1295933 163.861359,61.5602112 C167.378128,60.9841309 170.670494,63.3688354 171.239876,66.8755572 L174.358078,86.0536726 C174.930809,89.5570452 172.549454,92.8628087 169.046082,93.4321899 C168.694405,93.4891279 168.349426,93.5159223 168.007797,93.5159223 Z" id="Path" fill="#A0A0A0"></path>
                <path d="M187.999794,93.5192714 C187.658165,93.5192714 187.309837,93.492477 186.961509,93.435539 C183.454789,92.8661577 181.076782,89.5603943 181.646164,86.0570225 L184.764366,66.8755572 C185.333748,63.3688354 188.629463,60.9874799 192.142883,61.5602112 C195.649605,62.1295933 198.027611,65.4320068 197.458229,68.9387285 L194.340027,88.1201939 C193.827584,91.275238 191.0979,93.5192714 187.999794,93.5192714 Z" id="Path" fill="#A0A0A0"></path>
                <g id="Group" fill="#434C54">
                  <path d="M216.736824,77.4459612 C190.702682,82.0110631 165.385292,82.0110631 139.418136,77.4560093 C128.063995,75.3459473 117.028038,81.9172817 113.742371,92.7455828 C113.715576,92.8393633 113.688782,92.9331438 113.665336,93.0269243 C112.282074,98.4661944 113.169639,104.086326 116.170616,108.855736 C119.462982,114.087349 124.945793,117.808426 131.21569,119.071114 C131.26593,119.081161 131.312821,119.091209 131.36306,119.097908 C147.071297,121.884529 162.55513,123.27784 178.045662,123.27784 C193.532845,123.27784 209.023376,121.884529 224.724915,119.097908 C224.775154,119.091209 224.822044,119.081161 224.872284,119.071114 C231.142181,117.808426 236.624992,114.087349 239.917358,108.855736 C242.918335,104.086326 243.809249,98.4661944 242.425987,93.0269243 C242.402543,92.9331438 242.375748,92.8393633 242.345604,92.7455828 C239.059937,81.9172817 228.030678,75.3459473 216.736824,77.4459612 L216.736824,77.4459612 Z M229.03212,102.006409 C227.63881,104.216949 225.163674,105.874855 222.400497,106.447586 C192.554848,111.732788 163.533126,111.732788 133.687477,106.447586 C130.924301,105.874855 128.449166,104.216949 127.059204,102.006409 C125.947235,100.241325 125.622353,98.3355713 126.094604,96.339386 C127.528107,91.8747637 132.220482,89.1986694 137.130562,90.1130293 C164.661843,94.9393764 191.426132,94.9427263 219.024398,90.102982 C223.867493,89.2020185 228.563217,91.8747637 229.99672,96.339386 C230.465622,98.3355713 230.140739,100.241325 229.03212,102.006409 Z" id="Shape"></path>
                  <path d="M51.8405308,420.297485 C77.0808873,430.415733 111.906952,436.230125 161.416366,438.594734 C161.520195,438.604782 161.624023,438.61483 161.727852,438.61818 L162.910156,438.668419 C163.573319,438.695213 164.23983,438.725357 164.902992,438.748802 C165.676681,438.778946 166.45372,438.805741 167.22406,438.829185 C167.910667,438.852631 168.593925,438.872726 169.277183,438.889473 C170.037476,438.906219 170.794418,438.922966 171.551361,438.939713 C172.251365,438.953109 172.951371,438.963157 173.651375,438.973206 C174.391571,438.983254 175.135116,438.989952 175.875313,438.993302 C176.595414,438.996651 177.315513,439 178.035614,439 C178.755715,439 179.479164,439 180.199264,438.993302 C180.939461,438.989952 181.679657,438.983254 182.416504,438.973206 C183.119857,438.963157 183.819863,438.953109 184.519867,438.939713 C185.280159,438.926315 186.037102,438.909569 186.794045,438.889473 C187.480652,438.869377 188.16391,438.852631 188.843819,438.829185 C189.620857,438.805741 190.394547,438.778946 191.168236,438.748802 C191.834747,438.725357 192.497909,438.695213 193.157723,438.668419 L194.346725,438.61818 C194.450554,438.61483 194.551033,438.604782 194.654862,438.594734 C244.167625,436.230125 278.990341,430.415733 304.230697,420.297485 C338.631401,406.511749 356.071228,383.947487 356.071228,353.227669 C356.071228,307.549858 343.919952,262.173485 319.952332,218.354538 C302.633079,186.693565 279.62336,156.529732 251.566239,128.697014 C249.044212,126.195084 244.971458,126.215179 242.469528,128.733856 C239.970947,131.255882 239.987694,135.328636 242.50972,137.827217 C288.448776,183.394501 343.2099,257.749054 343.2099,353.227669 C343.2099,378.524963 328.894974,396.557617 299.447892,408.360565 C275.500366,417.959671 241.859955,423.489372 193.579735,425.770248 C193.492653,425.776947 193.40892,425.783646 193.321838,425.790344 L192.59169,425.820488 C191.955322,425.847282 191.315605,425.874077 190.672539,425.897522 C189.928993,425.927665 189.185447,425.951111 188.438553,425.974556 C187.782089,425.998002 187.125626,426.014748 186.465812,426.031494 C185.739014,426.04824 185.012215,426.064987 184.278717,426.081734 C183.605507,426.091781 182.928947,426.105179 182.249039,426.111877 C181.538986,426.121926 180.828934,426.128624 180.115532,426.131974 C178.72892,426.142021 177.342308,426.142021 175.955696,426.131974 C175.242294,426.128624 174.532242,426.121926 173.81884,426.111877 C173.142281,426.105179 172.465721,426.091781 171.789162,426.081734 C171.059013,426.064987 170.332214,426.05159 169.605416,426.031494 C168.945602,426.014748 168.289139,425.998002 167.629326,425.974556 C166.885781,425.951111 166.142235,425.927665 165.398689,425.897522 C164.755623,425.874077 164.115906,425.847282 163.472839,425.817139 L162.746041,425.790344 C162.662308,425.780296 162.578575,425.776947 162.491493,425.770248 C114.211273,423.489372 80.5708618,417.959671 56.6233364,408.360565 C27.1762538,396.557617 12.8613281,378.524963 12.8613281,353.227669 C12.8613281,257.467712 67.9004438,182.962441 114.073952,137.321472 C116.599327,134.826241 116.622772,130.753487 114.127541,128.228111 C111.632309,125.702736 107.559555,125.679291 105.03418,128.174522 C76.8799282,156.003891 53.7797773,186.19117 36.3734436,217.892334 C12.238358,261.851951 0,307.385742 0,353.227669 C0,383.947487 17.4431763,406.511749 51.8405308,420.297485 Z" id="Path"></path>
                  <path d="M131.84871,60.1367571 C132.994171,62.3372498 135.234855,63.5999372 137.555924,63.5999372 C138.557365,63.5999372 139.572205,63.3654864 140.520058,62.8697893 C143.671753,61.2319789 144.894249,57.350136 143.25309,54.198441 C137.756881,43.6380842 131.064972,34.5815656 123.361572,27.2800825 C121.151031,25.1834185 120.122795,22.8288574 120.67878,21.137459 C121.341942,19.1278765 124.724739,16.6527405 132.240578,15.7316816 C136.052086,15.266129 140.262162,16.7632673 144.331566,18.2101667 C147.834938,19.459457 151.140702,20.635063 154.463211,20.635063 C163.412552,20.635063 167.84703,17.5871966 171.085808,15.3599086 C173.487259,13.7053528 174.699707,12.8747253 177.975326,12.8613281 C177.995422,12.8646772 178.015519,12.8680263 178.038963,12.8613281 C181.361473,12.8646772 182.573921,13.6986537 184.98877,15.3599086 C188.227547,17.5871966 192.662026,20.635063 201.611366,20.635063 C204.930526,20.635063 208.23964,19.459457 211.739662,18.2101667 C215.809066,16.7632673 220.022491,15.262779 223.83065,15.7316816 C231.346489,16.6560896 234.732635,19.1278765 235.392448,21.137459 C235.948433,22.8288574 234.923546,25.1834185 232.709656,27.2800825 C225.026351,34.5648193 218.347839,43.5945435 212.861679,54.1147077 C211.217171,57.2630537 212.439667,61.1482466 215.591362,62.789406 C218.736359,64.4305647 222.621552,63.2114179 224.26606,60.063072 C229.092407,50.8055952 234.910148,42.9179844 241.558517,36.6145935 C247.510231,30.9710161 249.771012,23.6829302 247.607361,17.1115949 C246.143715,12.6670689 241.314018,4.92012765 225.401474,2.96748395 C218.578941,2.12680838 212.392777,4.32730103 207.425759,6.09573364 C205.325745,6.84262869 202.709938,7.77373483 201.611366,7.77373483 C196.657745,7.77373483 194.916107,6.57468436 192.276855,4.75936105 C189.195496,2.6426008 185.360543,0.0033493042 178.042313,2.66453526e-15 C178.015519,2.66453526e-15 177.988724,2.66453526e-15 177.96193,2.66453526e-15 C170.69059,0.0200958252 166.869034,2.64929984 163.797722,4.75936105 C161.15847,6.57468436 159.416832,7.77373483 154.463211,7.77373483 C153.36464,7.77373483 150.748832,6.84262869 148.645469,6.09573364 C143.681801,4.32730103 137.502335,2.12680838 130.673104,2.96748395 C114.760559,4.92012765 109.927513,12.6670689 108.463867,17.1115949 C106.300216,23.6829302 108.560997,30.9710161 114.51606,36.6145935 C121.177826,42.9313808 127.008964,50.8457868 131.84871,60.1367571 Z" id="Path"></path>
                </g>
              </g>
            </g>
          </svg>