<svg xmlns="http://www.w3.org/2000/svg" width="21.933" height="17.848" viewBox="0 0 21.933 17.848">
  <path id="_x30_4.Twitter" d="M31.833,19.611a9.224,9.224,0,0,1-2.577.713,4.386,4.386,0,0,0,1.974-2.495,9.469,9.469,0,0,1-2.851,1.1A4.5,4.5,0,0,0,20.593,22a4.111,4.111,0,0,0,.11,1.014,12.657,12.657,0,0,1-9.239-4.688,4.512,4.512,0,0,0,1.371,6,4.317,4.317,0,0,1-2.029-.548A4.544,4.544,0,0,0,14.4,28.247a4.935,4.935,0,0,1-2.029.082,4.515,4.515,0,0,0,4.195,3.126A9.059,9.059,0,0,1,9.9,33.32,12.777,12.777,0,0,0,29.585,22.572,4.049,4.049,0,0,0,29.558,22,8.924,8.924,0,0,0,31.833,19.611Z" transform="translate(-9.9 -17.5)" fill="#fff"/>
</svg>
